<?xml version="1.0" encoding="utf-8"?>
<!-- Generator: Adobe Illustrator 26.0.3, SVG Export Plug-In . SVG Version: 6.00 Build 0)  -->
<svg version="1.1" id="Layer_1" xmlns:serif="http://www.serif.com/"
	 xmlns="http://www.w3.org/2000/svg" xmlns:xlink="http://www.w3.org/1999/xlink" x="0px" y="0px" viewBox="0 0 595.3 841.9"
	 style="enable-background:new 0 0 595.3 841.9;" xml:space="preserve">
<style type="text/css">
	.st0{fill:#008070;}
	.st1{fill:#00A1B6;}
	.st2{fill:#144983;}
	.st3{fill:none;}
	.st4{fill:#FFFFFF;}
</style>
<rect class="st0" width="601.9" height="841.9"/>
<g transform="matrix(1,0,0,1,28.1626,768.604)">
</g>
<g transform="matrix(1,0,0,1,111.082,768.604)">
</g>
<g>
	<polygon class="st1" points="0,771.3 0,841.9 601.9,841.9 601.9,642.6 	"/>
</g>
<polygon class="st2" points="0.5,842 601.9,842 601.9,734.7 0,605.8 "/>
<g>
	<path class="st3" d="M-49.8-81.8v691h533.9v-691L-49.8-81.8L-49.8-81.8z M72.9,84.9c-10.8,0-21.5,0-32.4,0c-3.8,0-5.5-1.8-5.5-5.8
		c0-6.9,0.1-13.7,0-20.6c0-2.9,0.9-4.9,3.6-5.9c0.5-0.2,1-1.2,1-1.9c0.2-2.8,0.1-5.6,0.3-8.4c1-8.8,9.1-15.5,17.6-15
		c8.8,0.5,15.9,7.9,16.1,17c0,0.2-0.1,0.3-0.2,0.6h-6.5c-0.2-0.7-0.3-1.3-0.4-2c-1-5-5.1-8.5-9.9-8.4c-5,0.1-9.2,3.8-9.7,9
		c-0.3,2.8-0.1,5.7-0.1,8.9c1.1,0,2.1,0,3.1,0c7.4,0,14.8,0,22.3,0c4.5,0,6.3,1.7,6.3,6.4c0,6.8,0,13.5,0,20.3
		C78.4,83.1,76.6,84.9,72.9,84.9z"/>
	<path class="st3" d="M69.5,64.5c-0.1-0.2-0.3-0.3-0.3-0.3c-1.2-0.3-2.4-0.7-3.7-1c-2.9-0.8-5.7-1.7-8.6-2.4c-0.2,0-0.3,0-0.5,0
		c-0.7,0.2-1.3,0.3-2,0.5c-3.1,0.9-6.1,1.7-9.2,2.6c-0.3,0.1-0.8,0.2-1.1,0.3s-0.4,0.4-0.3,0.6c0.1,0.1,0.3,0.2,0.4,0.3
		c2,0.6,4,1.1,6,1.7c0.1,0,0.2,0.1,0.3,0.1c-0.3,0.3-0.4,0.7-0.6,1C49.3,69,49,70.3,49,71.6c0,0.3,0.1,0.4,0.3,0.5
		c2.4,0.9,4.7,1.7,7.2,2.6c0.2,0.1,0.3,0.1,0.5,0c0.3-0.1,0.6-0.3,1-0.3c2.1-0.8,4.1-1.5,6.2-2.3c0.3-0.1,0.4-0.3,0.3-0.6
		c0-0.3,0-0.6-0.1-0.9c-0.1-1-0.4-1.9-0.9-2.8c-0.2-0.3-0.4-0.7-0.6-1c1-0.3,2.2-0.6,3.2-1c0.3-0.1,0.7-0.2,1-0.3
		c0.3-0.1,0.6-0.2,0.8-0.3v5.9v0.1c-0.4,0.2-0.9,0.6-0.8,1.1c0,0.5,0.4,1,0.9,1.1l-0.8,6.5l2.2-0.1l-0.8-6.1
		c0.4-0.2,0.9-0.6,0.9-1.1s-0.3-1-0.8-1.1v-0.1v-6.1c0.2-0.1,0.3-0.1,0.5-0.2C69.5,65,69.6,64.8,69.5,64.5z"/>
	<path class="st4" d="M72.1,52.4c-7.4,0-14.8,0-22.3,0c-1,0-1.9,0-3.1,0c0-3.1-0.3-6.1,0.1-8.9c0.5-5.1,4.7-8.9,9.7-9
		c4.8-0.1,9,3.4,9.9,8.4c0.1,0.7,0.3,1.3,0.4,2h6.5c0.1-0.3,0.3-0.5,0.2-0.6c-0.3-9-7.3-16.5-16.1-17c-8.6-0.5-16.5,6.2-17.6,15
		c-0.3,2.8-0.2,5.6-0.3,8.4c-0.1,0.7-0.5,1.7-1,1.9c-2.7,1.1-3.6,3.1-3.6,5.9c0.1,6.9,0,13.7,0,20.6c0,3.9,1.7,5.8,5.5,5.8
		c10.8,0,21.5,0,32.4,0c3.8,0,5.5-1.8,5.5-5.8c0-6.8,0-13.5,0-20.3C78.4,54.1,76.6,52.4,72.1,52.4z M68.6,71.4L68.6,71.4
		c0.4,0.3,0.8,0.7,0.8,1.2s-0.3,1-0.9,1.1l0.9,6.4l-2.2,0.1l0.8-6.5c-0.4-0.2-0.9-0.6-0.9-1.1s0.3-1,0.8-1.1v-0.1v-5.9
		c-0.2,0.1-0.5,0.1-0.8,0.3c-0.3,0.1-0.7,0.2-1,0.3c-1,0.3-2.2,0.6-3.2,1c0.2,0.3,0.4,0.7,0.6,1c0.4,0.9,0.8,1.8,0.9,2.8
		c0,0.3,0.1,0.6,0.1,0.9s-0.1,0.5-0.3,0.6c-2.1,0.8-4.1,1.5-6.2,2.3c-0.3,0.1-0.6,0.3-1,0.3c-0.2,0.1-0.3,0.1-0.5,0
		c-2.4-0.9-4.7-1.7-7.2-2.6C49,72.3,49,72.1,49,71.9c0-1.3,0.3-2.5,0.9-3.7c0.2-0.3,0.4-0.7,0.6-1c-0.1,0-0.2-0.1-0.3-0.1
		c-2-0.6-4-1.1-6-1.7c-0.2,0-0.3-0.1-0.4-0.3c-0.2-0.3,0-0.5,0.3-0.6s0.8-0.3,1.1-0.3c3.1-0.9,6.1-1.7,9.2-2.6
		c0.7-0.2,1.3-0.3,2-0.5c0.2,0,0.3,0,0.5,0c2.9,0.8,5.7,1.7,8.6,2.4c1.2,0.3,2.4,0.7,3.7,1c0.2,0.1,0.3,0.1,0.3,0.3
		c0.1,0.3,0,0.5-0.3,0.6c-0.2,0.1-0.3,0.1-0.5,0.2L68.6,71.4L68.6,71.4z"/>
	<g>
		<g>
			<path class="st4" d="M93.5,59.9l-1,5.2c-0.1,0.3-0.1,0.8-0.1,1.1c0,1.1,0.7,1.7,1.7,1.7c1.2,0,2.1-0.8,2.4-2.8l1-5.2h1l-1,5.2
				c-0.5,2.6-1.8,3.7-3.7,3.7c-1.5,0-2.6-0.8-2.6-2.6c0-0.3,0-0.8,0.1-1.2l1-5.1L93.5,59.9L93.5,59.9z"/>
			<path class="st4" d="M98.9,68.8l1.7-8.8h1.2l2,5c0.3,1,0.6,1.7,0.8,2.4l0,0c0.1-0.8,0.2-1.5,0.3-2.8l0.9-4.7h1l-1.7,8.8h-1l-2-5
				c-0.4-1.1-0.6-1.7-0.8-2.5l0,0c-0.1,0.8-0.3,1.7-0.4,2.9l-0.9,4.6L98.9,68.8L98.9,68.8z"/>
			<path class="st4" d="M108.8,59.9h1l-1.5,7.9h3.6l-0.2,1h-4.6L108.8,59.9z"/>
			<path class="st4" d="M121.1,63.4c0,1.6-0.5,3.2-1.6,4.3c-0.8,0.8-1.8,1.2-3.1,1.2c-2.3,0-3.3-1.7-3.3-3.6c0-1.6,0.6-3.3,1.7-4.4
				c0.8-0.7,1.8-1.2,3-1.2C120.2,59.8,121.1,61.5,121.1,63.4z M115.6,61.5c-0.9,0.9-1.3,2.4-1.3,3.7c0,1.4,0.6,2.8,2.4,2.8
				c0.8,0,1.5-0.3,2-0.9c0.9-0.9,1.3-2.4,1.3-3.7c0-1.2-0.4-2.7-2.4-2.7C116.8,60.7,116.1,61,115.6,61.5z"/>
			<path class="st4" d="M127.7,68.4c-0.5,0.3-1.3,0.4-2.3,0.4c-2.2,0-3.6-1.4-3.6-3.7c0-1.7,0.7-3.2,1.9-4.3c0.9-0.8,2-1.2,3.3-1.2
				c1,0,1.7,0.3,1.9,0.4l-0.3,0.9c-0.3-0.2-1-0.3-1.7-0.3c-1,0-1.8,0.3-2.5,1c-0.9,0.8-1.4,2-1.4,3.3c0,1.6,0.7,2.9,2.7,2.9
				c0.7,0,1.4-0.2,1.9-0.3L127.7,68.4z"/>
			<path class="st4" d="M130.5,59.9h1l-0.8,4.3h0.1c0.3-0.3,0.6-0.7,0.9-1l3.1-3.3h1.4l-3.8,3.8l2.3,5.1h-1.1l-1.9-4.4l-1,1
				l-0.6,3.3h-1L130.5,59.9z"/>
			<path class="st4" d="M140.3,60.6v1.8h1.7v0.9h-1.7v3.4c0,0.8,0.3,1.2,0.9,1.2c0.3,0,0.5,0,0.7-0.1l0.1,0.9
				c-0.3,0.1-0.6,0.2-1,0.2c-0.5,0-1-0.2-1.2-0.5c-0.3-0.3-0.4-0.9-0.4-1.7v-3.5h-1v-0.9h1v-1.4L140.3,60.6z"/>
			<path class="st4" d="M143.3,59.5h1.1v3.9l0,0c0.2-0.3,0.4-0.6,0.8-0.8c0.3-0.2,0.8-0.3,1.2-0.3c0.9,0,2.2,0.5,2.2,2.7v3.8h-1.1
				v-3.7c0-1-0.3-1.9-1.5-1.9c-0.8,0-1.3,0.5-1.6,1.1c-0.1,0.2-0.1,0.3-0.1,0.5v3.8h-1.1L143.3,59.5L143.3,59.5z"/>
			<path class="st4" d="M151.2,65.8c0,1.6,1,2.2,2.2,2.2c0.8,0,1.3-0.2,1.7-0.3l0.2,0.8c-0.4,0.2-1.1,0.3-2.1,0.3
				c-1.9,0-3.1-1.3-3.1-3.2c0-1.9,1.1-3.4,3-3.4c2.1,0,2.6,1.8,2.6,3c0,0.3,0,0.4,0,0.5h-4.4L151.2,65.8L151.2,65.8z M154.5,64.9
				c0-0.7-0.3-1.8-1.6-1.8c-1.1,0-1.7,1-1.7,1.8H154.5z"/>
			<path class="st4" d="M165.3,62.4c0,0.4-0.1,1-0.1,1.7v3.7c0,1.5-0.3,2.4-0.9,2.9c-0.6,0.6-1.5,0.8-2.3,0.8s-1.6-0.2-2.1-0.5
				l0.3-0.9c0.4,0.3,1,0.5,1.8,0.5c1.2,0,2-0.6,2-2.2v-0.7l0,0c-0.3,0.6-1,1-2,1c-1.6,0-2.7-1.3-2.7-3.1c0-2.2,1.4-3.4,2.9-3.4
				c1.1,0,1.7,0.6,2,1.1l0,0l0.1-1L165.3,62.4L165.3,62.4z M164.1,64.9c0-0.2,0-0.3-0.1-0.5c-0.2-0.7-0.8-1.2-1.6-1.2
				c-1.1,0-1.9,1-1.9,2.4c0,1.2,0.6,2.3,1.8,2.3c0.7,0,1.3-0.4,1.6-1.1c0.1-0.2,0.1-0.4,0.1-0.6L164.1,64.9L164.1,64.9z"/>
			<path class="st4" d="M167.2,64.4c0-0.8,0-1.4-0.1-2h1v1.2h0.1c0.3-0.9,1-1.4,1.7-1.4c0.1,0,0.3,0,0.3,0v1c-0.1,0-0.3,0-0.3,0
				c-0.8,0-1.4,0.6-1.6,1.5c0,0.2-0.1,0.3-0.1,0.5v3.4h-1.1v-4.2H167.2z"/>
			<path class="st4" d="M174.9,68.8l-0.1-0.8l0,0c-0.3,0.5-1,1-1.9,1c-1.3,0-1.9-0.9-1.9-1.8c0-1.6,1.4-2.4,3.8-2.4v-0.2
				c0-0.5-0.2-1.5-1.4-1.5c-0.6,0-1.2,0.2-1.7,0.4l-0.3-0.8c0.5-0.3,1.3-0.5,2.1-0.5c1.9,0,2.4,1.3,2.4,2.6v2.4c0,0.5,0,1,0.1,1.5
				L174.9,68.8L174.9,68.8z M174.9,65.6c-1.2,0-2.7,0.2-2.7,1.4c0,0.8,0.5,1.1,1,1.1c0.8,0,1.3-0.5,1.6-1c0-0.1,0.1-0.3,0.1-0.3
				L174.9,65.6L174.9,65.6z"/>
			<path class="st4" d="M183.2,59.5v7.7c0,0.5,0,1.2,0.1,1.7h-1l-0.1-1.1l0,0c-0.3,0.7-1.1,1.2-2.2,1.2c-1.6,0-2.7-1.3-2.7-3.2
				c0-2.1,1.3-3.4,2.9-3.4c1,0,1.7,0.4,1.9,1l0,0v-3.8h1.1V59.5z M182.1,65c0-0.2,0-0.3-0.1-0.5c-0.2-0.7-0.8-1.3-1.7-1.3
				c-1.2,0-1.9,1-1.9,2.4c0,1.3,0.6,2.4,1.8,2.4c0.8,0,1.5-0.5,1.7-1.4c0-0.2,0.1-0.3,0.1-0.5L182.1,65L182.1,65z"/>
			<path class="st4" d="M91.1,83.3c0.3,0.3,1,0.4,1.5,0.4c0.9,0,1.2-0.4,1.2-1c0-0.5-0.3-0.9-1.2-1.1c-1.1-0.4-1.7-1-1.7-1.8
				c0-1,0.8-1.8,2.2-1.8c0.6,0,1.2,0.2,1.6,0.4l-0.3,0.9c-0.3-0.2-0.7-0.3-1.3-0.3c-0.7,0-1,0.3-1,0.9c0,0.5,0.3,0.8,1.2,1
				c1.1,0.4,1.7,1,1.7,1.9c0,1.1-0.9,1.9-2.4,1.9c-0.7,0-1.3-0.2-1.7-0.4L91.1,83.3z"/>
			<path class="st4" d="M97.8,76.3v1.8h1.7V79h-1.7v3.4c0,0.8,0.3,1.2,0.9,1.2c0.3,0,0.5,0,0.7-0.1l0.1,0.9c-0.3,0.1-0.6,0.2-1,0.2
				c-0.5,0-1-0.2-1.2-0.5c-0.3-0.3-0.4-0.9-0.4-1.7v-3.5h-1V78h1v-1.4L97.8,76.3z"/>
			<path class="st4" d="M106.1,82.7c0,0.7,0,1.2,0.1,1.7h-1l-0.1-1l0,0c-0.3,0.5-1,1.2-2.1,1.2c-1,0-2.2-0.5-2.2-2.8v-3.7h1.1v3.5
				c0,1.2,0.3,2,1.4,2c0.8,0,1.3-0.5,1.5-1c0.1-0.2,0.1-0.3,0.1-0.6v-3.9h1.1L106.1,82.7L106.1,82.7z"/>
			<path class="st4" d="M113.4,75.2v7.6c0,0.5,0,1.2,0.1,1.7h-1l-0.1-1.1l0,0c-0.3,0.7-1.1,1.2-2.2,1.2c-1.6,0-2.7-1.3-2.7-3.2
				c0-2.1,1.3-3.4,2.9-3.4c1,0,1.7,0.4,1.9,1l0,0v-3.8C112.3,75.2,113.4,75.2,113.4,75.2z M112.3,80.7c0-0.2,0-0.3-0.1-0.5
				c-0.2-0.7-0.8-1.3-1.7-1.3c-1.2,0-1.9,1-1.9,2.4c0,1.3,0.6,2.4,1.8,2.4c0.8,0,1.5-0.5,1.7-1.4c0-0.2,0.1-0.3,0.1-0.5L112.3,80.7
				L112.3,80.7z"/>
			<path class="st4" d="M116,81.5c0,1.6,1,2.2,2.2,2.2c0.8,0,1.3-0.2,1.7-0.3l0.2,0.8c-0.4,0.2-1.1,0.3-2.1,0.3
				c-1.9,0-3.1-1.3-3.1-3.2s1.1-3.4,3-3.4c2.1,0,2.6,1.8,2.6,3c0,0.3,0,0.4,0,0.5L116,81.5L116,81.5L116,81.5z M119.4,80.7
				c0-0.7-0.3-1.8-1.6-1.8c-1.1,0-1.7,1-1.7,1.8H119.4z"/>
			<path class="st4" d="M121.9,79.9c0-0.7,0-1.2-0.1-1.7h1l0.1,1l0,0c0.3-0.6,1-1.2,2.1-1.2c0.9,0,2.3,0.5,2.3,2.7v3.8h-1.1v-3.7
				c0-1-0.3-1.8-1.5-1.8c-0.8,0-1.3,0.5-1.6,1.1c-0.1,0.2-0.1,0.3-0.1,0.5v3.8h-1.1L121.9,79.9L121.9,79.9z"/>
			<path class="st4" d="M130.5,76.3v1.8h1.7V79h-1.7v3.4c0,0.8,0.3,1.2,0.9,1.2c0.3,0,0.5,0,0.7-0.1l0.1,0.9c-0.3,0.1-0.6,0.2-1,0.2
				c-0.5,0-1-0.2-1.2-0.5c-0.3-0.3-0.4-0.9-0.4-1.7v-3.5h-1V78h1v-1.4L130.5,76.3z"/>
			<path class="st4" d="M136.9,81.5c0,1.6,1,2.2,2.2,2.2c0.8,0,1.3-0.2,1.7-0.3l0.2,0.8c-0.4,0.2-1.1,0.3-2.1,0.3
				c-1.9,0-3.1-1.3-3.1-3.2s1.1-3.4,3-3.4c2.1,0,2.6,1.8,2.6,3c0,0.3,0,0.4,0,0.5L136.9,81.5L136.9,81.5L136.9,81.5z M140.3,80.7
				c0-0.7-0.3-1.8-1.6-1.8c-1.1,0-1.7,1-1.7,1.8H140.3z"/>
			<path class="st4" d="M143.4,78.1l0.9,1.4c0.3,0.3,0.4,0.7,0.6,1l0,0c0.2-0.3,0.4-0.7,0.6-1l0.9-1.3h1.2l-2.2,3.1l2.2,3.3h-1.3
				l-1-1.4c-0.3-0.3-0.4-0.7-0.7-1.1l0,0c-0.2,0.3-0.4,0.7-0.7,1.1l-1,1.4h-1.3l2.3-3.2l-2.2-3.1L143.4,78.1L143.4,78.1z"/>
			<path class="st4" d="M148.9,80.2c0-0.8,0-1.5-0.1-2.1h1l0.1,1l0,0c0.4-0.8,1.2-1.2,2.3-1.2c1.6,0,2.7,1.3,2.7,3.2
				c0,2.3-1.4,3.4-2.9,3.4c-0.9,0-1.6-0.3-1.9-1l0,0v3.4H149L148.9,80.2C149,80.2,148.9,80.2,148.9,80.2z M150.1,81.9
				c0,0.2,0,0.3,0.1,0.4c0.2,0.8,0.9,1.3,1.7,1.3c1.2,0,1.9-1,1.9-2.4c0-1.3-0.7-2.4-1.9-2.4c-0.8,0-1.5,0.5-1.7,1.4
				c0,0.2-0.1,0.3-0.1,0.4V81.9z"/>
			<path class="st4" d="M157,81.5c0,1.6,1,2.2,2.2,2.2c0.8,0,1.3-0.2,1.7-0.3l0.2,0.8c-0.4,0.2-1.1,0.3-2.1,0.3
				c-1.9,0-3.1-1.3-3.1-3.2s1.1-3.4,3-3.4c2.1,0,2.6,1.8,2.6,3c0,0.3,0,0.4,0,0.5L157,81.5L157,81.5L157,81.5z M160.4,80.7
				c0-0.7-0.3-1.8-1.6-1.8c-1.1,0-1.7,1-1.7,1.8H160.4z"/>
			<path class="st4" d="M162.9,80.1c0-0.8,0-1.4-0.1-2h1v1.2h0.1c0.3-0.9,1-1.4,1.7-1.4c0.1,0,0.3,0,0.3,0v1c-0.1,0-0.3,0-0.3,0
				c-0.8,0-1.4,0.6-1.6,1.5c0,0.2-0.1,0.3-0.1,0.5v3.4h-1.1L162.9,80.1L162.9,80.1z"/>
			<path class="st4" d="M168.5,76.4c0,0.4-0.3,0.7-0.7,0.7s-0.7-0.3-0.7-0.7c0-0.4,0.3-0.7,0.7-0.7
				C168.2,75.6,168.5,75.9,168.5,76.4z M167.2,84.5v-6.4h1.1v6.4H167.2z"/>
			<path class="st4" d="M170.9,81.5c0,1.6,1,2.2,2.2,2.2c0.8,0,1.3-0.2,1.7-0.3l0.2,0.8c-0.4,0.2-1.1,0.3-2.1,0.3
				c-1.9,0-3.1-1.3-3.1-3.2s1.1-3.4,3-3.4c2.1,0,2.6,1.8,2.6,3c0,0.3,0,0.4,0,0.5L170.9,81.5L170.9,81.5L170.9,81.5z M174.2,80.7
				c0-0.7-0.3-1.8-1.6-1.8c-1.1,0-1.7,1-1.7,1.8H174.2z"/>
			<path class="st4" d="M176.8,79.9c0-0.7,0-1.2-0.1-1.7h1l0.1,1l0,0c0.3-0.6,1-1.2,2.1-1.2c0.9,0,2.3,0.5,2.3,2.7v3.8h-1.1v-3.7
				c0-1-0.3-1.8-1.5-1.8c-0.8,0-1.3,0.5-1.6,1.1c-0.1,0.2-0.1,0.3-0.1,0.5v3.8h-1.1L176.8,79.9L176.8,79.9z"/>
			<path class="st4" d="M188.6,84.2c-0.3,0.2-1,0.3-1.8,0.3c-1.9,0-3.1-1.3-3.1-3.2c0-1.9,1.3-3.4,3.4-3.4c0.7,0,1.3,0.2,1.6,0.3
				l-0.3,0.9c-0.3-0.2-0.7-0.3-1.3-0.3c-1.5,0-2.3,1-2.3,2.4c0,1.5,1,2.4,2.2,2.4c0.7,0,1-0.2,1.4-0.3L188.6,84.2z"/>
			<path class="st4" d="M190.6,81.5c0,1.6,1,2.2,2.2,2.2c0.8,0,1.3-0.2,1.7-0.3l0.2,0.8c-0.4,0.2-1.1,0.3-2.1,0.3
				c-1.9,0-3.1-1.3-3.1-3.2s1.1-3.4,3-3.4c2.1,0,2.6,1.8,2.6,3c0,0.3,0,0.4,0,0.5L190.6,81.5L190.6,81.5L190.6,81.5z M194,80.7
				c0-0.7-0.3-1.8-1.6-1.8c-1.1,0-1.7,1-1.7,1.8H194z"/>
		</g>
	</g>
</g>
</svg>
