<?xml version="1.0" encoding="utf-8"?>
<!-- Generator: Adobe Illustrator 26.0.3, SVG Export Plug-In . SVG Version: 6.00 Build 0)  -->
<svg version="1.1" id="Layer_1" xmlns:serif="http://www.serif.com/"
	 xmlns="http://www.w3.org/2000/svg" xmlns:xlink="http://www.w3.org/1999/xlink" x="0px" y="0px" viewBox="0 0 595.3 841.9"
	 style="enable-background:new 0 0 595.3 841.9;" xml:space="preserve">
<style type="text/css">
	.st0{fill:none;}
	.st1{fill:#1DB89A;}
	.st2{fill:#008070;}
	.st3{fill:#008188;}
</style>
<rect x="49.8" y="747.5" class="st0" width="19.3" height="18.2"/>
<rect x="27.4" y="777" class="st0" width="58.6" height="15.5"/>
<g transform="matrix(1,0,0,1,28.1626,768.604)">
</g>
<rect x="108" y="777" class="st0" width="34" height="15.7"/>
<g transform="matrix(1,0,0,1,111.082,768.604)">
</g>
<rect x="152.6" y="778.4" class="st0" width="82.8" height="19.4"/>
<polygon class="st1" points="0.8,0 0.1,841.9 69.1,841.9 24.9,0 "/>
<polygon class="st2" points="0.4,0 0.4,841.9 25.1,841.9 54.4,0 "/>
<g>
	<g id="XMLID_00000178177861595013833070000009860787242148434569_">
		<g>
			<path class="st3" d="M490.5,805.3c-3.3-3-6.8-5.2-10.3-6.5l0,0c1.9-3.1,3.3-7,3.5-11.7C488.2,792.3,490.5,798.8,490.5,805.3z
				 M490,804.4c-0.9-1.4-1.6-2.2-2.3-3.1c-2.2-3-3.4-4.5-3.6-9c0-1-0.1-2.5-0.1-3.8c-0.1,0.7-0.3,1.5-0.4,2.3
				c-0.8,5.2-1.6,7.4,3.9,11.4C488.4,802.8,488.9,803.2,490,804.4z"/>
			<path class="st3" d="M490.5,805.3c0,6.5-2.3,13-6.8,18.2c-0.2-4.7-1.6-8.7-3.5-11.8l0,0C483.6,810.4,487.1,808.3,490.5,805.3z
				 M487.7,809.3c0.7-0.9,1.4-1.6,2.3-3.1c-1.1,1.1-1.7,1.6-2.5,2.2c-5.5,4-4.7,6.2-3.9,11.4c0.1,0.8,0.3,1.5,0.4,2.3
				c0.1-1.3,0.1-2.8,0.1-3.8C484.4,813.9,485.5,812.3,487.7,809.3z"/>
			<path class="st3" d="M483.3,784.6c11.4,11.4,11.4,30,0,41.4s-30,11.4-41.4,0s-11.4-30,0-41.4
				C453.4,773.2,471.9,773.2,483.3,784.6z M482.7,825.4c11.1-11.1,11.1-29.1,0-40.2c-11.1-11.1-29.1-11.1-40.2,0s-11.1,29.1,0,40.2
				C453.6,836.5,471.6,836.5,482.7,825.4z"/>
			<path class="st3" d="M481.8,800.4c2.4,0,4.2,2.3,4.2,4.9c0,2.7-1.9,5-4.3,4.9c-1.4,0-2.3-0.6-3.2-1.6c0.6,0.8,1.2,2,1.6,3.1l0,0
				c-1.7-2.8-3.8-5-5.5-6.4l0,0c1.7-1.4,3.8-3.6,5.5-6.5l0,0l0,0c-0.4,1-1,2.3-1.7,3.1c0.8-1,1.7-1.6,3.2-1.6
				C481.8,800.4,481.8,800.4,481.8,800.4z M485.2,805.3c-0.8-0.1-1.3-0.6-1.5-1.6c-0.1-0.5-0.2-2.5-1-2.8c0.5,1.1,0.6,2.7,0.2,3.5
				c-0.1,0.1-0.2,0.3-0.5,0.3c-0.2,0-1.5,0-1.6,0c0,0.1,0,0.9,0,1.1c0.1,0,1.4,0,1.6,0c0.3,0,0.4,0.2,0.5,0.3
				c0.4,0.8,0.3,2.3-0.2,3.5c0.8-0.3,0.9-2.3,1-2.8C483.8,805.9,484.4,805.4,485.2,805.3z M482.6,807.5c0-0.3-0.1-1.2-0.5-1.6
				c-0.2,0.6-0.6,0.9-0.7,1.2c0.1-0.1,0.3-0.2,0.5-0.2C482.2,807,482.5,807.2,482.6,807.5z M482.1,804.6c0.4-0.3,0.5-1.2,0.5-1.6
				c-0.1,0.3-0.3,0.6-0.6,0.6c-0.2,0-0.4-0.1-0.5-0.2C481.5,803.7,481.9,804,482.1,804.6z M481.9,802.3c0.3,0,0.5,0.2,0.6,0.5
				c-0.1-0.7-0.4-1.5-0.7-1.7c0,0.5-0.6,1.1-0.6,1.7C481.4,802.5,481.6,802.3,481.9,802.3z M482.6,807.8c-0.1,0.3-0.3,0.5-0.6,0.5
				c-0.3,0-0.6-0.2-0.6-0.5c0,0.6,0.6,1.3,0.6,1.7C482.2,809.3,482.5,808.5,482.6,807.8z M481.1,804.1c-0.4-0.6-0.5-2.1-0.1-2.9
				c-0.3,0.1-0.4,0.3-0.6,0.5c-0.1,0.2-0.3,0.3-0.6,0.4c-0.4,0.1-0.7,0.2-0.9,0.3c0.7,0,1.2,0.1,1.4,0.4
				C480.7,803.4,480.6,803.8,481.1,804.1z M481,809.4c-0.4-0.7-0.3-2.3,0.1-2.9c-0.4,0.3-0.4,0.7-0.7,1.2c-0.2,0.3-0.7,0.5-1.4,0.4
				c0.1,0.1,0.5,0.2,0.9,0.3c0.3,0.1,0.4,0.2,0.6,0.4C480.6,809.1,480.7,809.3,481,809.4z M480.4,805.3c0-1-0.7-1.8-1.5-1.8
				s-1.5,0.8-1.5,1.8s0.7,1.8,1.5,1.8C479.7,807.1,480.4,806.3,480.4,805.3z"/>
			<path class="st3" d="M479.8,788.1c2.3,2.3,2.5,5.8,0.5,7.9c-0.9,0.9-2.2,1.3-3.4,1.3c0.5,0.2,1.5,0.4,3.2,1.5
				c-3.1-1.2-6.1-1.7-8.8-1.8c-0.2-2.8-0.8-6-2.1-9.2c1.1,1.7,1.4,2.8,1.6,3.3c0-1.3,0.4-2.5,1.3-3.4
				C474,785.6,477.5,785.8,479.8,788.1z M481.2,793.9c0.2-1.1-1.7-3.3-2.4-4c-0.7,0.6-1.2,0.9-1.4,0.7c-0.2-0.2,0.1-0.7,0.7-1.4
				c-0.7-0.8-2.9-2.7-4-2.4c1.8,1.1,3.5,2.9,2.8,3.5l-2,2l0.4,0.4l0.4,0.4l2-2C478.3,790.4,480.1,792.1,481.2,793.9z M480,795.4
				c0.1-0.6,0.2-1.7-0.9-2.6c0.2,0.3,0.2,0.7-0.1,1c-0.2,0.2-0.6,0.3-0.9,0.1C478.6,794.3,479.5,794.4,480,795.4z M477.9,792.7
				c0.2-0.2,0.6-0.3,0.9-0.1c-0.3-0.2-1-0.6-1.8-0.6c0.5,0.4,0.5,1.1,0.7,1.4C477.7,793.2,477.7,792.9,477.9,792.7z M477.6,795.7
				c0.2,0,1.1-0.2,1.6-0.5c-0.9,0.1-1.9,0.3-2.3-0.3c0-0.1-0.3-0.7-0.6-0.9c0.5,1.1,0.4,2.2,0.1,3c0.3-0.2,0.6-0.8,0.7-0.9
				S477.4,795.8,477.6,795.7z M475.9,790.9c0-0.8-0.3-1.4-0.6-1.8c0.1,0.3,0.1,0.6-0.1,0.9c-0.2,0.2-0.5,0.3-0.7,0.2
				C474.9,790.4,475.5,790.4,475.9,790.9z M475.3,795.7c0.7-0.7,0.6-2-0.2-2.8c-0.8-0.8-2.1-0.9-2.8-0.2s-0.6,2,0.2,2.8
				C473.3,796.3,474.6,796.4,475.3,795.7z M474.1,788.9c0.3-0.3,0.7-0.3,1-0.1c-0.9-1.1-2-0.9-2.6-0.9c1.1,0.5,1.2,1.4,1.5,1.8
				C473.8,789.4,473.9,789.1,474.1,788.9z M474,791.6c-0.2-0.3-0.8-0.5-0.9-0.6c-0.6-0.4-0.4-1.3-0.3-2.3c-0.3,0.5-0.5,1.4-0.5,1.6
				c-0.1,0.2-0.2,0.4-0.3,0.5c-0.1,0.1-0.7,0.4-0.9,0.7C471.7,791.2,472.8,791.2,474,791.6z"/>
			<path class="st3" d="M480.3,814.6c2,2,1.8,5.6-0.5,7.9c-2.3,2.3-5.8,2.5-7.9,0.5c-0.9-0.9-1.3-2.1-1.3-3.4
				c-0.2,0.5-0.4,1.5-1.4,3.1c1.2-3.1,1.9-6.2,2-9c2.8-0.2,5.8-0.8,8.9-2l0,0l0,0l0,0c-1.7,1.1-2.8,1.4-3.3,1.6
				C478.1,813.4,479.3,813.7,480.3,814.6z M478.7,820.7c0.8-0.7,2.7-2.9,2.4-4c-1.1,1.8-2.9,3.5-3.5,2.8l-2-2l-0.4,0.4l-0.4,0.4l2,2
				c0.7,0.7-1,2.4-2.8,3.5c1.1,0.2,3.3-1.7,4-2.4c-0.6-0.7-0.9-1.2-0.7-1.4S478,820.1,478.7,820.7z M479.1,817.8
				c1.1-0.9,0.9-2,0.9-2.6c-0.5,1.1-1.4,1.2-1.8,1.5c0.3-0.1,0.6-0.1,0.9,0.1C479.3,817,479.3,817.4,479.1,817.8z M478.8,818.1
				c-0.3,0.1-0.6,0.1-0.9-0.1c-0.2-0.2-0.3-0.5-0.2-0.7c-0.2,0.4-0.2,1-0.7,1.4C477.8,818.6,478.4,818.3,478.8,818.1z M479.1,815.4
				c-0.5-0.3-1.4-0.5-1.6-0.5c-0.2-0.1-0.4-0.2-0.5-0.3s-0.4-0.7-0.7-0.9c0.3,0.7,0.4,1.9-0.1,3c0.3-0.2,0.5-0.8,0.6-0.9
				C477.2,815.1,478.2,815.3,479.1,815.4z M475.3,821.5c0.2-0.3,0.6-1,0.6-1.8c-0.4,0.5-1.1,0.5-1.4,0.7c0.3-0.1,0.6,0,0.7,0.2
				C475.4,820.8,475.5,821.2,475.3,821.5z M475,817.8c0.8-0.8,0.9-2.1,0.2-2.8c-0.7-0.7-2-0.6-2.8,0.2s-0.9,2.1-0.2,2.8
				S474.2,818.6,475,817.8z M475,821.8c-0.3,0.2-0.7,0.2-1-0.1c-0.2-0.2-0.3-0.6-0.1-0.9c-0.3,0.4-0.4,1.3-1.5,1.8
				C473,822.8,474.1,822.9,475,821.8z M473,819.5c0.1,0,0.7-0.3,0.9-0.6c-1.1,0.5-2.2,0.4-3,0.1c0.2,0.3,0.8,0.6,0.9,0.7
				c0.1,0.1,0.3,0.3,0.3,0.5s0.2,1.1,0.5,1.6C472.6,820.9,472.4,820,473,819.5z"/>
			<path class="st3" d="M479.5,805.3c0,0.5-0.3,0.9-0.7,0.9s-0.7-0.4-0.7-0.9s0.3-0.9,0.7-0.9S479.5,804.8,479.5,805.3z"/>
			<path class="st3" d="M474.7,805.3L474.7,805.3c-0.4,0-4.6,0.3-5.5,2.6l0,0c0.7-1.7,0.7-3.6,0-5.2
				C470.1,805.1,474.3,805.3,474.7,805.3z"/>
			<path class="st3" d="M474.5,793.5c0.5,0.5,0.5,1.2,0.1,1.6s-1.1,0.4-1.6-0.1s-0.5-1.2-0.1-1.6C473.3,793,474,793,474.5,793.5z"/>
			<path class="st3" d="M474.5,815.5c0.4,0.4,0.4,1.1-0.1,1.6s-1.2,0.5-1.6,0.1s-0.4-1.1,0.1-1.6
				C473.4,815.2,474.1,815.1,474.5,815.5z"/>
			<path class="st3" d="M473.5,803.9c0.3,0.3,0.6,0.8,1.1,1.4c-0.6-0.5-3.8-3.1-4.1-3.3c0.2-1.2,0.7-3.9,0.7-5.1
				c0.2,0.7,0.1,1.4,0.1,1.7C471.5,800.7,472.2,802.3,473.5,803.9z"/>
			<path class="st3" d="M474.7,805.3c-0.5,0.7-0.8,1.1-1.1,1.4c-1.4,1.6-2,3.1-2.1,5.3c0,0.3,0,1-0.1,1.7c0-1.2-0.5-3.9-0.7-5.1
				C470.9,808.4,474.1,805.8,474.7,805.3z"/>
			<path class="st3" d="M471.3,796.9c-1.2,0-4.2,0.3-5.3,0.4c-0.2-0.3-2.8-3.4-3.3-4.1c0.7,0.5,1.1,0.8,1.4,1.1
				c1.6,1.4,3.1,2,5.3,2.1C469.6,796.6,470.6,796.7,471.3,796.9z"/>
			<path class="st3" d="M465.9,813.3c1.2,0.2,4.1,0.5,5.3,0.4c-0.7,0.2-1.7,0.4-1.9,0.4c-2.1,0.1-3.7,0.8-5.3,2.1
				c-0.3,0.3-0.8,0.6-1.4,1.1l0,0C463.2,816.7,465.7,813.5,465.9,813.3z"/>
			<path class="st3" d="M480.9,784.2c-4.7,0.2-8.7,1.6-11.8,3.5c-1.4-3.5-3.5-7-6.5-10.3C469.2,777.4,475.7,779.7,480.9,784.2z
				 M479.4,783.9c-1.3-0.1-2.8-0.1-3.8-0.1c-4.4-0.2-6-1.4-9-3.6c-0.9-0.7-1.7-1.4-3.1-2.3c1.1,1.1,1.6,1.7,2.2,2.5
				c4,5.5,6.2,4.7,11.4,3.9C478,784.2,478.7,784,479.4,783.9z"/>
			<path class="st3" d="M469.1,822.9c3.1,1.9,7,3.3,11.8,3.5c-5.2,4.5-11.7,6.8-18.2,6.8C465.6,829.9,467.7,826.3,469.1,822.9z
				 M475.6,826.8c1,0,2.5-0.1,3.8-0.1c-0.7-0.1-1.5-0.3-2.3-0.4c-5.2-0.8-7.4-1.6-11.4,3.9c-0.6,0.8-1.1,1.4-2.2,2.5
				c1.4-0.9,2.2-1.6,3.1-2.3C469.6,828.2,471.2,827,475.6,826.8z"/>
			<path class="st3" d="M469.1,807.9C469.1,808,469.1,808,469.1,807.9c-0.4,0.9,0.1,3.5,2.1,5.7c-2.2-2-5-2.3-5.9-1.9l0,0
				c0.8-0.3,1.6-0.8,2.3-1.5C468.3,809.6,468.8,808.8,469.1,807.9L469.1,807.9z"/>
			<path class="st3" d="M469.1,822.8L469.1,822.8c-1-0.4-2.3-1-3.1-1.6c1,0.8,1.6,1.7,1.6,3.2c0.1,2.4-2.2,4.3-4.9,4.3l0,0
				c-2.7,0-5-1.9-4.9-4.3c0-1.4,0.6-2.3,1.6-3.2c-0.9,0.6-2.1,1.3-3.1,1.7c2.9-1.7,5-3.8,6.5-5.5l0,0
				C464.1,819.1,466.2,821.1,469.1,822.8z M466.7,823.6c-0.1-0.3-0.3-0.4-0.5-0.6c-0.2-0.1-0.3-0.3-0.4-0.6
				c-0.1-0.4-0.2-0.7-0.3-0.9c0,0.7-0.1,1.2-0.4,1.4c-0.5,0.3-0.9,0.3-1.2,0.7C464.5,823.4,466,823.2,466.7,823.6z M465.2,825.2
				c0.7-0.1,1.5-0.4,1.7-0.7c-0.5,0-1.1-0.6-1.7-0.6c0.3,0.1,0.5,0.3,0.5,0.6C465.6,824.9,465.4,825.1,465.2,825.2z M464.2,826.3
				c0.5-0.1,2.5-0.2,2.8-1c-1.1,0.5-2.7,0.6-3.5,0.2c-0.1-0.1-0.3-0.2-0.3-0.5c0-0.2,0-1.5,0-1.6c-0.1,0-0.9,0-1.1,0
				c0,0.1,0,1.4,0,1.6c0,0.3-0.2,0.4-0.3,0.5c-0.8,0.4-2.3,0.3-3.5-0.2c0.3,0.8,2.3,0.9,2.8,1c1,0.2,1.5,0.7,1.6,1.5
				C462.7,827.1,463.3,826.5,464.2,826.3z M463.3,824.8c0.3,0.4,1.2,0.5,1.6,0.5c-0.3-0.1-0.6-0.3-0.6-0.6c0-0.2,0.1-0.4,0.2-0.5
				C464.2,824.1,464,824.6,463.3,824.8z M464.4,821.5c0-0.8-0.8-1.5-1.8-1.5s-1.8,0.7-1.8,1.5s0.8,1.5,1.8,1.5
				S464.4,822.4,464.4,821.5z M462,824.8c-0.6-0.2-0.9-0.6-1.2-0.7c0.1,0.1,0.2,0.3,0.2,0.5c0,0.3-0.3,0.6-0.6,0.6
				C460.8,825.2,461.6,825.1,462,824.8z M461.4,823.7c-0.3-0.5-0.7-0.4-1.2-0.7c-0.3-0.2-0.5-0.7-0.4-1.4c-0.1,0.1-0.2,0.5-0.3,0.9
				c-0.1,0.3-0.2,0.4-0.4,0.6c-0.3,0.2-0.4,0.3-0.5,0.6C459.3,823.2,460.8,823.4,461.4,823.7z M460.1,823.9c-0.6,0-1.3,0.6-1.7,0.6
				c0.2,0.3,1,0.6,1.7,0.7c-0.3-0.1-0.5-0.3-0.5-0.6C459.7,824.3,459.9,824,460.1,823.9z"/>
			<path class="st3" d="M471.3,796.9c-2,2.2-2.5,4.8-2.1,5.7c-0.3-0.8-0.8-1.6-1.5-2.3s-1.4-1.2-2.2-1.5
				C466.3,799.2,469.1,798.9,471.3,796.9z"/>
			<path class="st3" d="M466,789.4c0.9-0.6,2.1-1.3,3.1-1.7c-2.9,1.7-5,3.8-6.5,5.5l0,0l0,0c-1.4-1.7-3.6-3.8-6.5-5.5
				c1,0.4,2.3,1,3.1,1.7c-1-0.8-1.6-1.7-1.6-3.2v-0.1c0-2.4,2.3-4.3,4.9-4.3c2.7,0,5,1.9,4.9,4.3C467.6,787.7,467,788.6,466,789.4z
				 M466.2,787.5c0.3-0.2,0.4-0.3,0.5-0.6c-0.8,0.4-2.3,0.3-2.9-0.1c0.3,0.4,0.7,0.4,1.2,0.7c0.3,0.2,0.5,0.7,0.4,1.4
				c0.1-0.1,0.2-0.5,0.3-0.9C465.9,787.9,466,787.7,466.2,787.5z M466.8,786.1c-0.2-0.3-1-0.6-1.7-0.7c0.3,0.1,0.5,0.3,0.5,0.6
				s-0.2,0.6-0.5,0.6C465.8,786.7,466.4,786.1,466.8,786.1z M467,785.2c-0.3-0.8-2.3-0.9-2.8-1c-1-0.2-1.5-0.7-1.6-1.5
				c-0.1,0.8-0.6,1.3-1.6,1.5c-0.5,0.1-2.5,0.2-2.8,1c1.1-0.5,2.7-0.6,3.5-0.2c0.1,0.1,0.3,0.2,0.3,0.5c0,0.2,0,1.5,0,1.6
				c0.1,0,0.9,0,1.1,0c0-0.1,0-1.4,0-1.6c0-0.3,0.2-0.4,0.3-0.5C464.3,784.7,465.8,784.8,467,785.2z M464.9,785.4
				c-0.3,0-1.2,0.1-1.6,0.5c0.6,0.2,0.9,0.6,1.2,0.7c-0.1-0.1-0.2-0.3-0.2-0.5C464.3,785.7,464.6,785.4,464.9,785.4z M464.4,789.1
				c0-0.8-0.8-1.5-1.8-1.5s-1.8,0.7-1.8,1.5s0.8,1.5,1.8,1.5C463.6,790.6,464.4,789.9,464.4,789.1z M460.7,786.5
				c0.3-0.1,0.6-0.5,1.2-0.7c-0.3-0.4-1.2-0.5-1.6-0.5c0.3,0.1,0.6,0.3,0.6,0.6C461,786.2,460.9,786.4,460.7,786.5z M460.2,787.6
				c0.5-0.3,0.9-0.3,1.2-0.7c-0.6,0.4-2.1,0.5-2.9,0.1c0.1,0.3,0.3,0.4,0.5,0.6c0.2,0.1,0.3,0.3,0.4,0.6c0.1,0.4,0.2,0.7,0.3,0.9
				C459.8,788.3,459.9,787.8,460.2,787.6z M458.4,786.1c0.5,0,1.1,0.6,1.7,0.6c-0.3-0.1-0.5-0.3-0.5-0.6s0.2-0.5,0.5-0.6
				C459.4,785.5,458.6,785.8,458.4,786.1z"/>
			<path class="st3" d="M465.3,811.8L465.3,811.8c-2.4,0.9-2.7,5.1-2.7,5.5l0,0l0,0c0-0.4-0.2-4.5-2.6-5.5
				C461.7,812.5,463.6,812.5,465.3,811.8z"/>
			<path class="st3" d="M465.2,802.8c1.4,1.4,1.4,3.7,0,5.1c-1.4,1.4-3.7,1.4-5.1,0s-1.4-3.7,0-5.1
				C461.5,801.4,463.8,801.4,465.2,802.8z"/>
			<path class="st3" d="M462.6,788.4c0.5,0,0.9,0.3,0.9,0.7s-0.4,0.7-0.9,0.7s-0.9-0.3-0.9-0.7S462.1,788.4,462.6,788.4z"/>
			<path class="st3" d="M462.6,820.7c0.5,0,0.9,0.3,0.9,0.7s-0.4,0.7-0.9,0.7s-0.9-0.3-0.9-0.7S462.1,820.7,462.6,820.7z"/>
			<path class="st3" d="M462.6,793.3c0,0.4,0.3,4.5,2.6,5.5c-1.7-0.7-3.6-0.7-5.3,0l0,0C462.4,797.8,462.6,793.7,462.6,793.3
				L462.6,793.3z"/>
			<path class="st3" d="M462.6,793.3L462.6,793.3c-0.5,0.6-3.1,3.8-3.3,4.1c-1.2-0.2-4.1-0.5-5.3-0.4c0.7-0.2,1.7-0.4,1.9-0.4
				c2.1-0.1,3.7-0.8,5.3-2.1C461.5,794.1,462,793.8,462.6,793.3z"/>
			<path class="st3" d="M462.6,817.3c-0.7-0.5-1.1-0.8-1.4-1.1c-1.6-1.4-3.1-2-5.3-2.1c-0.3,0-1.2-0.2-1.9-0.4
				c1.2,0,4.2-0.3,5.3-0.4C459.6,813.5,462.1,816.7,462.6,817.3z"/>
			<path class="st3" d="M460,798.8L460,798.8c-0.8,0.3-1.6,0.9-2.3,1.5c-0.7,0.7-1.3,1.6-1.6,2.5H456c0.3-1,0-3.7-1.9-5.8
				C456.3,798.9,459.1,799.2,460,798.8L460,798.8z"/>
			<path class="st3" d="M460,811.8c-0.9-0.4-3.7-0.1-5.9,1.9c2-2.2,2.5-4.8,2.1-5.7c0.3,0.8,0.8,1.6,1.5,2.3
				C458.4,810.9,459.1,811.4,460,811.8z"/>
			<path class="st3" d="M462.6,777.4c-3,3.3-5.1,6.8-6.5,10.3l0,0c-3.1-1.9-7-3.3-11.7-3.5C449.6,779.7,456.1,777.4,462.6,777.4z
				 M459.5,780.4c0.6-0.8,1.1-1.4,2.2-2.5c-1.4,0.9-2.2,1.6-3.1,2.3c-3,2.2-4.5,3.4-9,3.6c-1,0-2.5,0.1-3.8,0.1
				c0.7,0.1,1.5,0.3,2.3,0.4C453.4,785.1,455.5,785.9,459.5,780.4z"/>
			<path class="st3" d="M456.2,822.9c1.4,3.5,3.5,7,6.5,10.3c-6.5,0-13-2.3-18.2-6.8C449.1,826.2,453.1,824.7,456.2,822.9z
				 M461.7,832.7c-1.1-1.1-1.6-1.7-2.2-2.5c-4-5.5-6.2-4.7-11.4-3.9c-0.8,0.1-1.5,0.3-2.3,0.4c1.3,0.1,2.8,0.1,3.8,0.1
				c4.4,0.2,6,1.4,9,3.6C459.5,831.1,460.3,831.8,461.7,832.7z"/>
			<path class="st3" d="M456.2,787.7L456.2,787.7c-1.3,3.2-2,6.3-2.1,9.2c-2.8,0.2-5.8,0.7-8.9,1.9c1.7-1.1,2.7-1.3,3.3-1.5
				c-1.3,0-2.5-0.4-3.4-1.3c-2-2-1.8-5.6,0.5-7.9c2.3-2.3,5.8-2.5,7.9-0.5c0.9,0.9,1.3,2.1,1.3,3.4
				C454.8,790.5,455,789.5,456.2,787.7L456.2,787.7C456.1,787.7,456.1,787.7,456.2,787.7z M454.3,791.5c-0.2-0.3-0.8-0.6-0.9-0.7
				c-0.1-0.1-0.3-0.3-0.3-0.5s-0.2-1.1-0.5-1.6c0.1,0.9,0.3,1.9-0.3,2.3c-0.1,0-0.7,0.3-0.9,0.6
				C452.4,791.2,453.5,791.2,454.3,791.5z M452.7,795.5c0.8-0.8,0.9-2.1,0.2-2.8s-2-0.6-2.8,0.2c-0.8,0.9-0.9,2.1-0.2,2.8
				S451.9,796.3,452.7,795.5z M452.7,787.9c-0.6-0.1-1.7-0.2-2.6,0.9c0.3-0.2,0.7-0.2,1,0.1c0.2,0.2,0.3,0.6,0.1,0.9
				C451.5,789.3,451.7,788.5,452.7,787.9z M451.2,786.8c-1.1-0.2-3.3,1.7-4,2.4c0.6,0.7,0.8,1.2,0.7,1.4c-0.2,0.2-0.7-0.1-1.4-0.7
				c-0.8,0.7-2.7,2.9-2.4,4c1.1-1.8,2.9-3.5,3.5-2.8l2,2l0.4-0.4l0.4-0.4l-2-2C447.7,789.6,449.4,787.9,451.2,786.8z M450.7,790.2
				c-0.3,0.1-0.6,0-0.7-0.2c-0.2-0.2-0.3-0.6-0.1-0.9c-0.2,0.3-0.6,1-0.6,1.8C449.7,790.4,450.3,790.4,450.7,790.2z M448.8,797
				c-0.3-0.7-0.4-1.9,0.1-3c-0.3,0.2-0.5,0.8-0.6,0.9c-0.4,0.6-1.3,0.4-2.3,0.3c0.5,0.3,1.4,0.5,1.6,0.5c0.2,0.1,0.4,0.2,0.5,0.3
				C448.2,796.2,448.5,796.8,448.8,797z M448.2,792c-0.8,0-1.4,0.3-1.8,0.6c0.3-0.1,0.6-0.1,0.9,0.1c0.2,0.2,0.3,0.5,0.2,0.7
				C447.7,793.1,447.7,792.4,448.2,792z M447,794c-0.3,0.1-0.6,0.1-0.9-0.1c-0.3-0.3-0.3-0.7-0.1-1c-1.1,0.9-0.9,2-0.9,2.6
				C445.7,794.4,446.6,794.3,447,794z"/>
			<path class="st3" d="M456,802.8h0.1c-0.6,1.6-0.6,3.4,0,5.1c-1-2.3-5.1-2.6-5.5-2.6l0,0C450.9,805.3,455.1,805.1,456,802.8
				C455.9,802.8,456,802.8,456,802.8z"/>
			<path class="st3" d="M456.2,822.9c-1.1-1.7-1.4-2.8-1.6-3.3c0,1.3-0.4,2.5-1.3,3.4c-2,2-5.6,1.8-7.9-0.5s-2.5-5.8-0.5-7.9
				c0.9-0.9,2.2-1.3,3.4-1.3c-0.5-0.2-1.6-0.5-3.3-1.6l0,0l0,0c0,0,0,0,0-0.1c3.1,1.2,6.1,1.8,8.9,2
				C454.2,816.5,454.9,819.7,456.2,822.9z M453.4,819.8c0.1-0.1,0.7-0.4,0.9-0.7c-0.7,0.3-1.9,0.4-3-0.1c0.2,0.3,0.8,0.5,0.9,0.6
				c0.6,0.4,0.4,1.3,0.3,2.3c0.3-0.5,0.5-1.4,0.5-1.6C453.1,820,453.2,819.9,453.4,819.8z M453,818c0.7-0.7,0.6-2-0.2-2.8
				c-0.8-0.8-2.1-0.9-2.8-0.2s-0.6,2,0.2,2.8C451,818.6,452.3,818.7,453,818z M450.2,821.8c0.9,1.1,2,0.9,2.6,0.9
				c-1.1-0.5-1.2-1.4-1.5-1.8c0.1,0.3,0.1,0.6-0.1,0.9C450.9,822,450.5,822,450.2,821.8z M447.2,821.4c0.7,0.8,2.9,2.7,4,2.4
				c-1.8-1.1-3.5-2.9-2.8-3.5l2-2l-0.4-0.4l-0.4-0.4l-2,2c-0.7,0.7-2.4-1-3.5-2.8c-0.2,1.1,1.7,3.3,2.4,4c0.7-0.6,1.2-0.8,1.4-0.7
				C448.1,820.2,447.8,820.7,447.2,821.4z M450,820.6c0.2-0.2,0.5-0.3,0.7-0.2c-0.4-0.2-1-0.2-1.4-0.7c0,0.8,0.3,1.4,0.6,1.8
				C449.8,821.2,449.8,820.8,450,820.6z M449,816.6c-0.5-1.1-0.4-2.2-0.1-3c-0.3,0.2-0.6,0.8-0.7,0.9s-0.3,0.3-0.5,0.3
				s-1.1,0.2-1.6,0.5c0.9-0.1,1.9-0.3,2.3,0.3C448.4,815.8,448.7,816.4,449,816.6z M446.5,818.1c0.3,0.2,1,0.6,1.8,0.6
				c-0.5-0.4-0.5-1.1-0.7-1.4c0.1,0.3,0,0.6-0.2,0.7C447.1,818.1,446.8,818.2,446.5,818.1z M446.2,816.8c0.2-0.2,0.6-0.3,0.9-0.1
				c-0.4-0.3-1.3-0.4-1.8-1.5c-0.1,0.6-0.2,1.7,0.9,2.6C445.9,817.5,445.9,817,446.2,816.8z"/>
			<path class="st3" d="M454.7,808.6c-0.2,1.2-0.7,3.9-0.7,5.1c-0.2-0.7-0.1-1.4-0.1-1.7c-0.1-2.1-0.8-3.7-2.1-5.3
				c-0.3-0.3-0.6-0.8-1.1-1.4C451.2,805.8,454.4,808.4,454.7,808.6z"/>
			<path class="st3" d="M454,796.9c0,1.2,0.3,4.2,0.4,5.3c-0.3,0.2-3.2,2.5-3.8,3.1c0.5-0.7,0.9-1.1,1.1-1.4c1.4-1.6,2-3.1,2.1-5.3
				C453.9,798.3,453.8,797.6,454,796.9z"/>
			<path class="st3" d="M452.3,815.6c0.5,0.5,0.5,1.2,0.1,1.6c-0.4,0.4-1.1,0.4-1.6-0.1s-0.5-1.2-0.1-1.6S451.8,815.2,452.3,815.6z"
				/>
			<path class="st3" d="M452.3,793.4c0.4,0.4,0.4,1.1-0.1,1.6s-1.2,0.5-1.6,0.1s-0.4-1.1,0.1-1.6S451.9,793,452.3,793.4z"/>
			<path class="st3" d="M439.2,805.3c0-2.7,2-5,4.3-4.9c1.4,0,2.3,0.6,3.2,1.6c-0.6-0.9-1.3-2.1-1.7-3.1c1.7,2.9,3.8,5,5.5,6.5l0,0
				c-1.7,1.4-3.8,3.6-5.5,6.4l0,0c0.4-1,1-2.2,1.6-3.1c-0.8,1-1.7,1.6-3.2,1.6h-0.1C441.1,810.2,439.2,808,439.2,805.3z
				 M447.9,805.3c0-1-0.7-1.8-1.5-1.8s-1.5,0.8-1.5,1.8s0.7,1.8,1.5,1.8C447.2,807.1,447.9,806.3,447.9,805.3z M444.9,802.9
				c0.2-0.3,0.7-0.5,1.4-0.4c-0.1-0.1-0.5-0.2-0.9-0.3c-0.3-0.1-0.4-0.2-0.6-0.4c-0.2-0.3-0.3-0.4-0.6-0.5c0.4,0.7,0.3,2.3-0.1,2.9
				C444.7,803.8,444.6,803.4,444.9,802.9z M446.3,808.1c-0.7,0-1.2-0.1-1.4-0.4c-0.3-0.5-0.3-0.9-0.7-1.2c0.4,0.6,0.5,2.1,0.1,2.9
				c0.3-0.1,0.4-0.3,0.6-0.5c0.1-0.2,0.3-0.3,0.6-0.4C445.8,808.4,446.2,808.3,446.3,808.1z M444.5,805.8c0-0.1,0-0.9,0-1.1
				c-0.1,0-1.4,0-1.6,0c-0.3,0-0.4-0.2-0.5-0.3c-0.4-0.8-0.3-2.3,0.2-3.5c-0.8,0.3-0.9,2.3-1,2.8c-0.2,1-0.7,1.5-1.5,1.6
				c0.8,0.1,1.3,0.6,1.5,1.6c0.1,0.5,0.2,2.5,1,2.8c-0.5-1.1-0.6-2.7-0.2-3.5c0.1-0.1,0.2-0.3,0.5-0.3
				C443,805.8,444.4,805.8,444.5,805.8z M444,802.8c0-0.6-0.6-1.3-0.6-1.7c-0.3,0.2-0.6,1-0.7,1.7c0.1-0.3,0.3-0.5,0.6-0.5
				C443.7,802.3,443.9,802.5,444,802.8z M443.4,809.5c0-0.5,0.6-1.1,0.6-1.7c-0.1,0.3-0.3,0.5-0.6,0.5c-0.3,0-0.5-0.2-0.6-0.5
				C442.8,808.5,443.1,809.3,443.4,809.5z M443.9,803.4c-0.1,0.1-0.3,0.2-0.5,0.2c-0.3,0-0.6-0.3-0.6-0.6c0,0.3,0.1,1.2,0.5,1.6
				C443.4,804,443.8,803.7,443.9,803.4z M443.4,807c0.2,0,0.4,0.1,0.5,0.2c-0.1-0.3-0.5-0.6-0.7-1.2c-0.4,0.3-0.5,1.2-0.5,1.6
				C442.8,807.2,443,807,443.4,807z"/>
			<path class="st3" d="M446.5,804.4c0.4,0,0.7,0.4,0.7,0.9s-0.3,0.9-0.7,0.9s-0.7-0.4-0.7-0.9S446.1,804.4,446.5,804.4z"/>
			<path class="st3" d="M445.1,811.7C445.1,811.7,445.1,811.8,445.1,811.7L445.1,811.7c-1.9,3.2-3.3,7.1-3.5,11.8
				c-4.5-5.2-6.8-11.7-6.8-18.3C438.1,808.3,441.7,810.4,445.1,811.7z M441.6,819.8c0.8-5.2,1.6-7.4-3.9-11.4
				c-0.8-0.6-1.4-1.1-2.5-2.2c0.9,1.4,1.6,2.2,2.3,3.1c2.2,3,3.4,4.5,3.6,9c0,1,0.1,2.5,0.1,3.8
				C441.4,821.4,441.5,820.6,441.6,819.8z"/>
			<path class="st3" d="M441.6,787.1c0.2,4.7,1.6,8.6,3.5,11.7c-3.4,1.3-6.9,3.5-10.3,6.5C434.8,798.8,437.1,792.3,441.6,787.1z
				 M437.7,802.2c5.5-4,4.7-6.2,3.9-11.4c-0.1-0.8-0.3-1.5-0.4-2.3c-0.1,1.3-0.1,2.8-0.1,3.8c-0.2,4.4-1.4,6-3.6,9
				c-0.7,0.9-1.4,1.7-2.3,3.1C436.4,803.2,436.9,802.8,437.7,802.2z"/>
		</g>
	</g>
	<rect x="504" y="814.7" class="st3" width="76.7" height="1.6"/>
	<g>
		<path class="st3" d="M509.1,821.8h0.7v3.7c0,0.4-0.1,0.8-0.2,1c-0.1,0.3-0.3,0.5-0.5,0.7s-0.5,0.3-0.8,0.4
			c-0.3,0.1-0.6,0.1-0.9,0.1c-0.7,0-1.3-0.2-1.8-0.5c-0.5-0.4-0.7-0.9-0.7-1.7v-3.7h0.7v3.7c0,1.1,0.6,1.6,1.7,1.6s1.7-0.5,1.7-1.6
			L509.1,821.8L509.1,821.8z"/>
		<path class="st3" d="M511.6,821.8h2.4c0.6,0,1.1,0.1,1.4,0.4c0.4,0.3,0.5,0.6,0.5,1.1c0,0.3-0.1,0.6-0.3,0.8s-0.4,0.4-0.7,0.4
			c0.3,0.1,0.6,0.2,0.8,0.5c0.2,0.2,0.3,0.6,0.3,1c0,0.3,0,0.5-0.1,0.7s-0.2,0.3-0.4,0.5s-0.3,0.2-0.5,0.3s-0.4,0.1-0.6,0.1
			c-0.2,0-0.4,0-0.6,0h-2.5L511.6,821.8L511.6,821.8z M515.3,823.3c0-0.3-0.1-0.6-0.3-0.7c-0.2-0.1-0.6-0.2-1-0.2h-1.7v1.8h1.8
			c0.3,0,0.6-0.1,0.8-0.2C515.2,823.9,515.3,823.7,515.3,823.3z M515.5,825.9c0-0.7-0.5-1-1.4-1h-1.8v2h1.6c0.2,0,0.3,0,0.5,0
			c0.1,0,0.3,0,0.4-0.1c0.2,0,0.3-0.1,0.4-0.2c0.1-0.1,0.2-0.2,0.2-0.3C515.5,826.3,515.5,826.1,515.5,825.9z"/>
		<path class="st3" d="M517.3,824.7c0-0.6,0.2-1.2,0.5-1.7s0.7-0.8,1.1-1c0.5-0.2,0.9-0.3,1.5-0.3s1.1,0.1,1.6,0.4v0.7
			c-0.4-0.3-0.9-0.4-1.5-0.4c-0.7,0-1.2,0.2-1.7,0.6c-0.5,0.4-0.7,1-0.7,1.8c0,0.5,0.1,0.9,0.4,1.3c0.3,0.4,0.6,0.6,0.9,0.8
			c0.4,0.2,0.8,0.2,1.2,0.2c0.6,0,1.1-0.1,1.5-0.4v0.7c-0.5,0.3-1.1,0.4-1.7,0.4c-0.4,0-0.7-0.1-1.1-0.2c-0.4-0.1-0.7-0.3-1-0.6
			c-0.3-0.2-0.5-0.6-0.7-0.9C517.4,825.6,517.3,825.2,517.3,824.7z"/>
		<path class="st3" d="M528.2,827.6h-0.7l-2.4-5.8h0.8l2,5.1l2-5.1h0.8L528.2,827.6z"/>
		<path class="st3" d="M531.4,827.6h-0.8l2.5-5.8h0.8l2.5,5.8h-0.8l-0.6-1.4h-3.1L531.4,827.6z M533.5,822.7l-1.2,2.8h2.6l-1.2-2.8
			c0,0,0-0.1-0.1-0.2C533.6,822.6,533.5,822.7,533.5,822.7z"/>
		<path class="st3" d="M538.4,827.6h-0.7v-5.8h0.6l3.5,4.7V826v-4.2h0.7v5.8h-0.6l-3.5-4.7v0.5V827.6z"/>
		<path class="st3" d="M544.1,824.7c0-0.6,0.2-1.2,0.5-1.7s0.7-0.8,1.1-1s0.9-0.3,1.5-0.3s1.1,0.1,1.6,0.4v0.7
			c-0.4-0.3-0.9-0.4-1.5-0.4c-0.7,0-1.2,0.2-1.7,0.6c-0.5,0.4-0.7,1-0.7,1.8c0,0.5,0.1,0.9,0.4,1.3c0.3,0.4,0.6,0.6,0.9,0.8
			c0.4,0.2,0.8,0.2,1.2,0.2c0.6,0,1.1-0.1,1.5-0.4v0.7c-0.5,0.3-1.1,0.4-1.7,0.4c-0.4,0-0.7-0.1-1.1-0.2s-0.7-0.3-1-0.6
			c-0.3-0.2-0.5-0.6-0.7-0.9C544.2,825.6,544.1,825.2,544.1,824.7z"/>
		<path class="st3" d="M550,825.8c-0.1-0.4-0.2-0.7-0.2-1.1s0.1-0.8,0.2-1.1c0.1-0.4,0.3-0.7,0.6-1c0.2-0.3,0.6-0.5,1-0.7
			s0.8-0.3,1.3-0.3s0.9,0.1,1.3,0.3c0.4,0.2,0.7,0.4,1,0.7s0.4,0.6,0.6,1c0.1,0.4,0.2,0.7,0.2,1.1s-0.1,0.8-0.2,1.1s-0.3,0.7-0.6,1
			c-0.2,0.3-0.6,0.5-1,0.7s-0.8,0.3-1.3,0.3s-0.9-0.1-1.3-0.3c-0.4-0.2-0.7-0.4-1-0.7S550.1,826.1,550,825.8z M555.1,825.6
			c0.1-0.3,0.1-0.6,0.1-0.9s0-0.6-0.1-0.9c-0.1-0.3-0.2-0.5-0.4-0.8c-0.2-0.2-0.4-0.4-0.7-0.5s-0.6-0.2-1-0.2s-0.7,0.1-1,0.2
			s-0.6,0.3-0.7,0.5c-0.2,0.2-0.3,0.5-0.4,0.8c-0.1,0.3-0.1,0.6-0.1,0.9s0,0.6,0.1,0.9c0.1,0.3,0.2,0.5,0.4,0.8
			c0.2,0.2,0.4,0.4,0.7,0.5s0.6,0.2,1,0.2s0.7-0.1,1-0.2s0.6-0.3,0.7-0.5C554.8,826.1,555,825.8,555.1,825.6z"/>
		<path class="st3" d="M561.5,821.8h0.7v3.7c0,0.4-0.1,0.8-0.2,1c-0.1,0.3-0.3,0.5-0.5,0.7s-0.5,0.3-0.8,0.4
			c-0.3,0.1-0.6,0.1-0.9,0.1c-0.7,0-1.3-0.2-1.8-0.5c-0.5-0.4-0.7-0.9-0.7-1.7v-3.7h0.7v3.7c0,1.1,0.6,1.6,1.7,1.6s1.7-0.5,1.7-1.6
			L561.5,821.8L561.5,821.8z"/>
		<path class="st3" d="M566.5,827.6h-0.7l-2.4-5.8h0.8l2,5.1l2-5.1h0.8L566.5,827.6z"/>
		<path class="st3" d="M570.2,821.8h3.9v0.7h-3.2v1.9h3v0.7h-3v1.9h3.3v0.7h-4V821.8L570.2,821.8z"/>
		<path class="st3" d="M576.4,827.6h-0.7v-5.8h2.3c0.4,0,0.7,0,1,0.2c0.3,0.1,0.6,0.3,0.8,0.6s0.3,0.6,0.3,1c0,0.5-0.1,0.9-0.4,1.2
			c-0.3,0.3-0.7,0.5-1.1,0.5l2,2.4h-0.9l-1.9-2.3h-1.4L576.4,827.6L576.4,827.6z M576.4,822.4v2.2h1.6c0.4,0,0.8-0.1,1-0.3
			s0.4-0.5,0.4-0.8s-0.1-0.7-0.4-0.8c-0.3-0.2-0.6-0.3-1-0.3L576.4,822.4L576.4,822.4z"/>
	</g>
	<g>
		<g>
			<path class="st3" d="M531.8,808.5c-1.9,0.7-5.6,1.6-9.5,1.6c-5,0-8.8-1.3-11.6-4c-2.6-2.5-4.2-6.4-4.2-10.9
				c0-9.4,6.7-15.4,16.5-15.4c3.6,0,6.5,0.7,7.9,1.4l-1.2,4.4c-1.6-0.7-3.6-1.3-6.7-1.3c-6.3,0-10.8,3.7-10.8,10.6
				c0,6.7,4.2,10.7,10.3,10.7c2,0,3.4-0.3,4.1-0.6v-7.4h-5.3v-4.3h10.5V808.5z"/>
			<path class="st3" d="M537.2,804c1.7,1,4.4,1.9,7.2,1.9c3.5,0,5.4-1.6,5.4-4c0-2.2-1.5-3.6-5.3-4.9c-4.9-1.7-8-4.4-8-8.6
				c0-4.9,4.1-8.5,10.5-8.5c3.2,0,5.6,0.7,7.1,1.5l-1.3,4.4c-1.1-0.6-3.1-1.4-5.9-1.4c-3.4,0-4.9,1.8-4.9,3.6c0,2.3,1.7,3.3,5.7,4.9
				c5.2,2,7.6,4.6,7.6,8.8c0,4.8-3.6,8.9-11.2,8.9c-3.1,0-6.4-0.9-8-1.9L537.2,804z"/>
			<path class="st3" d="M560,804c1.7,1,4.4,1.9,7.2,1.9c3.5,0,5.4-1.6,5.4-4c0-2.2-1.5-3.6-5.3-4.9c-4.9-1.7-8-4.4-8-8.6
				c0-4.9,4.1-8.5,10.5-8.5c3.2,0,5.6,0.7,7.1,1.5l-1.3,4.4c-1.1-0.6-3.1-1.4-5.9-1.4c-3.4,0-4.9,1.8-4.9,3.6c0,2.3,1.7,3.3,5.7,4.9
				c5.2,2,7.6,4.6,7.6,8.8c0,4.8-3.6,8.9-11.2,8.9c-3.1,0-6.4-0.9-8-1.9L560,804z"/>
		</g>
	</g>
</g>
</svg>
