<?xml version="1.0" encoding="utf-8"?>
<!-- Generator: Adobe Illustrator 26.0.3, SVG Export Plug-In . SVG Version: 6.00 Build 0)  -->
<svg version="1.1" id="Layer_1" xmlns:serif="http://www.serif.com/"
	 xmlns="http://www.w3.org/2000/svg" xmlns:xlink="http://www.w3.org/1999/xlink" x="0px" y="0px" viewBox="0 0 595.3 841.9"
	 style="enable-background:new 0 0 595.3 841.9;" xml:space="preserve">
<style type="text/css">
	.st0{fill:#008070;}
	.st1{fill:none;}
	.st2{fill:#FFFFFF;}
	.st3{font-family:'ArialMT';}
	.st4{font-size:35px;}
	.st5{font-family:'Courier';}
	.st6{font-size:8.5px;}
</style>
<rect x="438.3" y="35.8" class="st0" width="156.9" height="770.4"/>
<rect x="49.8" y="747.5" class="st1" width="19.3" height="18.2"/>
<rect x="27.4" y="777" class="st1" width="58.6" height="15.5"/>
<g transform="matrix(1,0,0,1,28.1626,768.604)">
</g>
<rect x="108" y="777" class="st1" width="34" height="15.7"/>
<g transform="matrix(1,0,0,1,111.082,768.604)">
</g>
<rect x="152.6" y="778.4" class="st1" width="82.8" height="19.4"/>
<g id="Layer_1_00000019657170667367834120000015613498513715323070_">
	<g id="XMLID_2_">
		<g>
			<path class="st2" d="M501,768.4c-3.2-2.9-6.5-5-9.8-6.2l0,0c1.8-3,3.2-6.7,3.3-11.2C498.8,755.9,501,762.2,501,768.4z
				 M500.6,767.5c-0.9-1.4-1.6-2.1-2.2-2.9c-2.1-2.9-3.2-4.3-3.4-8.6c0-0.9-0.1-2.4-0.1-3.6c-0.1,0.7-0.2,1.4-0.4,2.2
				c-0.8,5-1.5,7.1,3.7,10.9C498.9,766,499.5,766.4,500.6,767.5z"/>
			<path class="st2" d="M501,768.4c0,6.2-2.2,12.5-6.5,17.4c-0.2-4.5-1.6-8.3-3.3-11.3l0,0C494.4,773.3,497.8,771.3,501,768.4z
				 M498.3,772.2c0.6-0.9,1.3-1.6,2.2-2.9c-1.1,1.1-1.6,1.5-2.4,2.1c-5.2,3.9-4.5,5.9-3.7,10.9c0.1,0.8,0.2,1.5,0.4,2.2
				c0.1-1.2,0.1-2.7,0.1-3.6C495.1,776.6,496.2,775.1,498.3,772.2z"/>
			<path class="st2" d="M494.1,748.6c10.9,10.9,10.9,28.7,0,39.6s-28.7,10.9-39.6,0s-10.9-28.7,0-39.6
				C465.5,737.6,483.2,737.6,494.1,748.6z M493.6,787.6c10.6-10.6,10.6-27.8,0-38.5c-10.6-10.6-27.8-10.6-38.5,0
				c-10.6,10.6-10.6,27.8,0,38.5C465.7,798.2,482.9,798.2,493.6,787.6z"/>
			<path class="st2" d="M492.7,763.7c2.3,0,4.1,2.2,4.1,4.7c0,2.6-1.9,4.8-4.2,4.7c-1.4,0-2.2-0.6-3.1-1.5c0.6,0.8,1.2,2,1.6,2.9
				l0,0c-1.6-2.7-3.6-4.8-5.3-6.1l0,0c1.7-1.4,3.7-3.5,5.3-6.2l0,0l0,0c-0.4,1-1,2.2-1.6,3c0.8-1,1.7-1.5,3.1-1.5
				C492.6,763.7,492.6,763.7,492.7,763.7z M495.9,768.4c-0.8-0.1-1.3-0.6-1.5-1.5c-0.1-0.5-0.2-2.4-0.9-2.6c0.4,1.1,0.6,2.6,0.2,3.3
				c-0.1,0.1-0.2,0.3-0.5,0.3c-0.2,0-1.4,0-1.5,0c0,0.1,0,0.9,0,1c0.1,0,1.4,0,1.5,0c0.3,0,0.4,0.2,0.5,0.3c0.4,0.7,0.3,2.2-0.2,3.3
				c0.8-0.2,0.8-2.2,0.9-2.6C494.6,769,495.1,768.5,495.9,768.4z M493.4,770.5c0-0.3-0.1-1.2-0.4-1.5c-0.2,0.6-0.6,0.9-0.7,1.2
				c0.1-0.1,0.3-0.2,0.5-0.2C493.1,770,493.3,770.2,493.4,770.5z M493,767.7c0.3-0.3,0.4-1.2,0.4-1.5c-0.1,0.3-0.3,0.5-0.6,0.5
				c-0.2,0-0.4-0.1-0.5-0.2C492.3,766.9,492.8,767.1,493,767.7z M492.8,765.5c0.3,0,0.5,0.2,0.6,0.4c-0.1-0.7-0.3-1.4-0.7-1.6
				c0,0.4-0.6,1-0.5,1.6C492.2,765.7,492.5,765.5,492.8,765.5z M493.4,770.8c-0.1,0.2-0.3,0.4-0.6,0.4c-0.3,0-0.5-0.2-0.6-0.5
				c0,0.6,0.5,1.2,0.5,1.6C493,772.2,493.3,771.5,493.4,770.8z M492,767.2c-0.3-0.6-0.5-2-0.1-2.7c-0.3,0.1-0.4,0.3-0.6,0.5
				c-0.1,0.2-0.3,0.3-0.6,0.4c-0.3,0.1-0.7,0.2-0.8,0.3c0.7,0,1.1,0.1,1.4,0.4C491.6,766.5,491.5,766.9,492,767.2z M491.9,772.3
				c-0.4-0.7-0.3-2.2,0.1-2.7c-0.4,0.3-0.4,0.7-0.7,1.1c-0.2,0.3-0.7,0.4-1.4,0.4c0.1,0.1,0.5,0.2,0.8,0.3c0.2,0.1,0.4,0.2,0.6,0.4
				C491.5,772.1,491.6,772.2,491.9,772.3z M491.3,768.4c0-0.9-0.6-1.7-1.4-1.7s-1.4,0.8-1.4,1.7s0.6,1.7,1.4,1.7
				S491.3,769.3,491.3,768.4z"/>
			<path class="st2" d="M490.8,751.9c2.2,2.2,2.4,5.6,0.5,7.5c-0.9,0.9-2.1,1.2-3.3,1.2c0.5,0.2,1.5,0.4,3,1.4
				c-2.9-1.1-5.8-1.6-8.4-1.7c-0.2-2.7-0.8-5.7-2-8.8c1.1,1.6,1.3,2.7,1.5,3.2c0-1.2,0.3-2.4,1.2-3.3
				C485.2,749.5,488.6,749.7,490.8,751.9z M492.1,757.5c0.2-1.1-1.6-3.2-2.3-3.8c-0.7,0.6-1.2,0.8-1.3,0.7c-0.2-0.2,0.1-0.7,0.7-1.3
				c-0.7-0.7-2.8-2.6-3.8-2.3c1.8,1.1,3.4,2.7,2.7,3.4l-1.9,1.9l0.4,0.4l0.4,0.4l1.9-1.9C489.3,754.1,491,755.7,492.1,757.5z
				 M490.9,759c0.1-0.6,0.2-1.6-0.8-2.5c0.2,0.3,0.2,0.7-0.1,0.9c-0.2,0.2-0.6,0.2-0.8,0.1C489.6,757.8,490.4,757.9,490.9,759z
				 M489,756.3c0.2-0.2,0.6-0.2,0.8-0.1c-0.3-0.2-0.9-0.6-1.7-0.5c0.4,0.4,0.4,1,0.7,1.4C488.7,756.8,488.8,756.5,489,756.3z
				 M488.6,759.2c0.2,0,1-0.2,1.5-0.5c-0.9,0.1-1.8,0.3-2.2-0.3c0-0.1-0.3-0.6-0.6-0.9c0.4,1.1,0.4,2.1,0.1,2.9
				c0.3-0.2,0.6-0.8,0.7-0.9C488.2,759.4,488.4,759.3,488.6,759.2z M487,754.6c0-0.8-0.3-1.4-0.5-1.7c0.1,0.3,0.1,0.6-0.1,0.8
				s-0.5,0.2-0.7,0.2C486,754.1,486.7,754.1,487,754.6z M486.5,759.2c0.7-0.7,0.6-1.9-0.2-2.7c-0.8-0.8-2-0.9-2.7-0.2
				s-0.6,1.9,0.2,2.7C484.5,759.8,485.8,759.9,486.5,759.2z M485.3,752.7c0.2-0.2,0.6-0.3,0.9-0.1c-0.9-1-1.9-0.9-2.5-0.8
				c1,0.5,1.1,1.3,1.4,1.7C485.1,753.2,485.1,752.9,485.3,752.7z M485.2,755.3c-0.2-0.2-0.8-0.5-0.9-0.6c-0.6-0.4-0.4-1.3-0.3-2.2
				c-0.3,0.5-0.4,1.3-0.5,1.5s-0.2,0.4-0.3,0.5c-0.1,0.1-0.7,0.4-0.9,0.7C483,754.9,484.1,754.9,485.2,755.3z"/>
			<path class="st2" d="M491.2,777.3c2,2,1.8,5.3-0.5,7.5c-2.2,2.2-5.6,2.4-7.5,0.5c-0.9-0.9-1.2-2.1-1.2-3.3
				c-0.2,0.5-0.4,1.4-1.4,3c1.2-3,1.8-5.9,2-8.6c2.7-0.2,5.6-0.7,8.5-1.9l0,0l0,0l0,0c-1.6,1.1-2.7,1.3-3.2,1.5
				C489.1,776.1,490.3,776.4,491.2,777.3z M489.7,783.1c0.7-0.7,2.6-2.8,2.3-3.8c-1.1,1.8-2.7,3.4-3.4,2.7l-1.9-1.9l-0.4,0.4
				l-0.4,0.4l1.9,1.9c0.7,0.7-1,2.3-2.7,3.4c1.1,0.2,3.2-1.6,3.8-2.3c-0.6-0.7-0.8-1.2-0.7-1.3C488.5,782.3,489,782.6,489.7,783.1z
				 M490.1,780.3c1-0.9,0.9-1.9,0.8-2.5c-0.5,1-1.3,1.1-1.7,1.4c0.3-0.1,0.6-0.1,0.8,0.1C490.3,779.6,490.3,780,490.1,780.3z
				 M489.7,780.6c-0.3,0.1-0.6,0.1-0.8-0.1c-0.2-0.2-0.2-0.5-0.2-0.7c-0.2,0.4-0.2,1-0.7,1.4C488.8,781.1,489.4,780.8,489.7,780.6z
				 M490.1,778c-0.5-0.3-1.3-0.4-1.5-0.5s-0.4-0.2-0.5-0.3s-0.4-0.7-0.7-0.9c0.3,0.7,0.3,1.8-0.1,2.9c0.2-0.2,0.5-0.8,0.6-0.9
				C488.3,777.8,489.2,778,490.1,778z M486.5,783.9c0.2-0.3,0.6-0.9,0.5-1.7c-0.4,0.4-1,0.4-1.4,0.7c0.2-0.1,0.5,0,0.7,0.2
				C486.6,783.2,486.6,783.6,486.5,783.9z M486.2,780.3c0.8-0.8,0.9-2,0.2-2.7c-0.7-0.7-1.9-0.6-2.7,0.2c-0.8,0.8-0.9,2-0.2,2.7
				C484.2,781.2,485.4,781.1,486.2,780.3z M486.2,784.2c-0.3,0.2-0.7,0.2-0.9-0.1c-0.2-0.2-0.2-0.6-0.1-0.8
				c-0.3,0.4-0.4,1.2-1.4,1.7C484.3,785.1,485.3,785.2,486.2,784.2z M484.3,782c0.1,0,0.6-0.3,0.9-0.6c-1.1,0.4-2.1,0.4-2.9,0.1
				c0.2,0.3,0.8,0.6,0.9,0.7s0.2,0.3,0.3,0.5c0,0.2,0.2,1,0.5,1.5C483.8,783.3,483.7,782.4,484.3,782z"/>
			<path class="st2" d="M490.5,768.4c0,0.5-0.3,0.9-0.7,0.9s-0.7-0.4-0.7-0.9s0.3-0.9,0.7-0.9S490.5,767.9,490.5,768.4z"/>
			<path class="st2" d="M485.8,768.4L485.8,768.4c-0.4,0-4.4,0.2-5.3,2.5l0,0c0.7-1.6,0.7-3.4,0-5
				C481.5,768.2,485.5,768.4,485.8,768.4z"/>
			<path class="st2" d="M485.6,757.1c0.4,0.4,0.5,1.1,0.1,1.5s-1.1,0.4-1.5-0.1c-0.4-0.4-0.5-1.1-0.1-1.5S485.2,756.6,485.6,757.1z"
				/>
			<path class="st2" d="M485.7,778.2c0.4,0.4,0.4,1.1-0.1,1.5c-0.4,0.4-1.1,0.5-1.5,0.1s-0.4-1.1,0.1-1.5
				C484.6,777.8,485.3,777.8,485.7,778.2z"/>
			<path class="st2" d="M484.7,767c0.3,0.3,0.6,0.7,1.1,1.4c-0.6-0.5-3.6-2.9-3.9-3.2c0.2-1.1,0.7-3.7,0.6-4.9
				c0.2,0.6,0.1,1.4,0.1,1.6C482.8,764,483.4,765.5,484.7,767z"/>
			<path class="st2" d="M485.8,768.4c-0.5,0.6-0.8,1.1-1.1,1.4c-1.3,1.5-1.9,3-2,5.1c0,0.2,0,1-0.1,1.6c0-1.1-0.5-3.8-0.6-4.9
				C482.2,771.3,485.2,768.9,485.8,768.4z"/>
			<path class="st2" d="M482.6,760.4c-1.1,0-4,0.2-5.1,0.4c-0.2-0.3-2.6-3.3-3.2-3.9c0.6,0.5,1.1,0.8,1.4,1.1c1.5,1.3,3,1.9,5.1,2
				C481,760,481.9,760.2,482.6,760.4z"/>
			<path class="st2" d="M477.5,776c1.1,0.2,3.9,0.4,5.1,0.4c-0.6,0.2-1.6,0.3-1.8,0.4c-2.1,0.1-3.5,0.7-5.1,2
				c-0.3,0.3-0.7,0.6-1.4,1.1l0,0C474.8,779.3,477.2,776.3,477.5,776z"/>
			<path class="st2" d="M491.8,748.2c-4.5,0.2-8.3,1.6-11.3,3.3c-1.3-3.3-3.4-6.7-6.2-9.8C480.6,741.7,486.8,743.9,491.8,748.2z
				 M490.4,747.9c-1.2-0.1-2.7-0.1-3.6-0.1c-4.3-0.2-5.7-1.3-8.6-3.4c-0.9-0.6-1.6-1.3-2.9-2.2c1.1,1.1,1.5,1.6,2.1,2.4
				c3.9,5.2,5.9,4.5,10.9,3.7C489,748.2,489.7,748,490.4,747.9z"/>
			<path class="st2" d="M480.5,785.2c3,1.8,6.7,3.2,11.3,3.3c-5,4.3-11.2,6.5-17.5,6.5C477.2,791.9,479.2,788.5,480.5,785.2z
				 M486.8,789c0.9,0,2.4-0.1,3.6-0.1c-0.7-0.1-1.4-0.2-2.2-0.4c-5-0.8-7.1-1.5-10.9,3.7c-0.6,0.8-1,1.3-2.1,2.4
				c1.4-0.9,2.1-1.6,2.9-2.2C481,790.3,482.5,789.2,486.8,789z"/>
			<path class="st2" d="M480.5,770.9L480.5,770.9c-0.4,0.9,0.1,3.4,2,5.5c-2.1-1.9-4.8-2.2-5.7-1.8l0,0c0.8-0.3,1.5-0.8,2.2-1.5
				C479.7,772.5,480.2,771.7,480.5,770.9L480.5,770.9z"/>
			<path class="st2" d="M480.5,785.2L480.5,785.2c-1-0.4-2.2-1-3-1.6c1,0.8,1.5,1.7,1.5,3.1c0.1,2.3-2.1,4.2-4.7,4.2l0,0
				c-2.6,0-4.8-1.9-4.7-4.2c0-1.4,0.6-2.2,1.5-3.1c-0.8,0.6-2,1.2-3,1.6c2.7-1.6,4.8-3.6,6.2-5.3l0,0
				C475.7,781.6,477.8,783.5,480.5,785.2z M478.2,785.9c-0.1-0.3-0.3-0.4-0.5-0.6c-0.2-0.1-0.3-0.3-0.4-0.6s-0.2-0.7-0.3-0.8
				c0,0.7-0.1,1.1-0.4,1.4c-0.4,0.3-0.8,0.2-1.1,0.7C476.1,785.7,477.5,785.5,478.2,785.9z M476.7,787.4c0.7-0.1,1.4-0.3,1.6-0.7
				c-0.4,0-1-0.6-1.6-0.5c0.3,0.1,0.5,0.3,0.5,0.6S477,787.4,476.7,787.4z M475.8,788.5c0.5-0.1,2.4-0.2,2.6-0.9
				c-1.1,0.4-2.6,0.6-3.3,0.2c-0.1-0.1-0.3-0.2-0.3-0.5c0-0.2,0-1.4,0-1.5c-0.1,0-0.9,0-1,0c0,0.1,0,1.4,0,1.5
				c0,0.3-0.2,0.4-0.3,0.5c-0.7,0.4-2.2,0.3-3.3-0.2c0.2,0.8,2.2,0.8,2.6,0.9c0.9,0.2,1.4,0.7,1.5,1.5
				C474.4,789.2,474.9,788.7,475.8,788.5z M475,787c0.3,0.3,1.2,0.4,1.5,0.4c-0.3-0.1-0.5-0.3-0.5-0.6c0-0.2,0.1-0.4,0.2-0.5
				C475.8,786.4,475.6,786.8,475,787z M476,783.9c0-0.8-0.8-1.4-1.7-1.4s-1.7,0.6-1.7,1.4s0.8,1.4,1.7,1.4S476,784.7,476,783.9z
				 M473.7,787c-0.6-0.2-0.9-0.6-1.2-0.7c0.1,0.1,0.2,0.3,0.2,0.5c0,0.3-0.2,0.6-0.5,0.6C472.5,787.5,473.4,787.4,473.7,787z
				 M473.1,786c-0.3-0.4-0.7-0.4-1.1-0.7c-0.3-0.2-0.4-0.7-0.4-1.4c-0.1,0.1-0.2,0.5-0.3,0.8c-0.1,0.2-0.2,0.4-0.4,0.6
				c-0.3,0.2-0.4,0.3-0.5,0.6C471.1,785.5,472.6,785.7,473.1,786z M471.9,786.2c-0.6,0-1.2,0.5-1.6,0.5c0.2,0.3,0.9,0.6,1.6,0.7
				c-0.2-0.1-0.4-0.3-0.4-0.6C471.5,786.6,471.7,786.3,471.9,786.2z"/>
			<path class="st2" d="M482.6,760.4c-1.9,2.1-2.4,4.6-2.1,5.4c-0.3-0.8-0.8-1.5-1.5-2.2c-0.6-0.6-1.4-1.1-2.1-1.4
				C477.8,762.6,480.5,762.2,482.6,760.4z"/>
			<path class="st2" d="M477.5,753.2c0.8-0.6,2-1.2,3-1.6c-2.7,1.6-4.8,3.6-6.2,5.3l0,0l0,0c-1.4-1.7-3.5-3.7-6.2-5.3
				c1,0.4,2.2,1,3,1.6c-1-0.8-1.5-1.7-1.5-3.1V750c0-2.3,2.2-4.1,4.7-4.1c2.6,0,4.8,1.9,4.7,4.2C479,751.5,478.5,752.4,477.5,753.2z
				 M477.7,751.4c0.3-0.2,0.4-0.3,0.5-0.6c-0.7,0.4-2.2,0.3-2.7-0.1c0.3,0.4,0.7,0.4,1.1,0.7c0.3,0.2,0.4,0.7,0.4,1.4
				c0.1-0.1,0.2-0.5,0.3-0.8C477.4,751.7,477.5,751.5,477.7,751.4z M478.3,750c-0.2-0.3-0.9-0.6-1.6-0.7c0.2,0.1,0.4,0.3,0.4,0.6
				s-0.2,0.5-0.5,0.6C477.3,750.6,477.9,750,478.3,750z M478.5,749.2c-0.2-0.8-2.2-0.8-2.6-0.9c-0.9-0.2-1.4-0.7-1.5-1.5
				c-0.1,0.8-0.6,1.3-1.5,1.5c-0.5,0.1-2.4,0.2-2.6,0.9c1.1-0.4,2.6-0.6,3.3-0.2c0.1,0.1,0.3,0.2,0.3,0.5c0,0.2,0,1.4,0,1.5
				c0.1,0,0.9,0,1,0c0-0.1,0-1.4,0-1.5c0-0.3,0.2-0.4,0.3-0.5C475.9,748.6,477.4,748.7,478.5,749.2z M476.5,749.3
				c-0.3,0-1.2,0.1-1.5,0.4c0.6,0.2,0.9,0.6,1.2,0.7c-0.1-0.1-0.2-0.3-0.2-0.5C475.9,749.6,476.2,749.4,476.5,749.3z M476,752.9
				c0-0.8-0.8-1.4-1.7-1.4s-1.7,0.6-1.7,1.4s0.8,1.4,1.7,1.4C475.3,754.3,476,753.7,476,752.9z M472.5,750.4
				c0.3-0.1,0.6-0.5,1.2-0.7c-0.3-0.3-1.2-0.4-1.5-0.4c0.3,0.1,0.5,0.3,0.5,0.6C472.7,750.1,472.6,750.3,472.5,750.4z M472,751.4
				c0.4-0.3,0.8-0.2,1.1-0.7c-0.6,0.3-2,0.5-2.7,0.1c0.1,0.3,0.3,0.4,0.5,0.6c0.2,0.1,0.3,0.3,0.4,0.6s0.2,0.7,0.3,0.8
				C471.6,752.1,471.7,751.7,472,751.4z M470.3,750c0.4,0,1,0.6,1.6,0.5c-0.3-0.1-0.5-0.3-0.5-0.6s0.2-0.5,0.4-0.6
				C471.2,749.4,470.5,749.7,470.3,750z"/>
			<path class="st2" d="M476.9,774.6L476.9,774.6c-2.3,0.9-2.6,4.9-2.6,5.3l0,0l0,0c0-0.4-0.2-4.3-2.5-5.3
				C473.4,775.3,475.3,775.3,476.9,774.6z"/>
			<path class="st2" d="M476.7,766c1.3,1.3,1.3,3.5,0,4.9s-3.5,1.3-4.9,0s-1.3-3.5,0-4.9C473.2,764.6,475.4,764.6,476.7,766z"/>
			<path class="st2" d="M474.3,752.2c0.5,0,0.9,0.3,0.9,0.7s-0.4,0.7-0.9,0.7s-0.9-0.3-0.9-0.7S473.8,752.2,474.3,752.2z"/>
			<path class="st2" d="M474.3,783.1c0.5,0,0.9,0.3,0.9,0.7s-0.4,0.7-0.9,0.7s-0.9-0.3-0.9-0.7S473.8,783.1,474.3,783.1z"/>
			<path class="st2" d="M474.3,756.9c0,0.4,0.2,4.3,2.5,5.3c-1.6-0.7-3.4-0.6-5,0l0,0C474.1,761.2,474.3,757.3,474.3,756.9
				L474.3,756.9z"/>
			<path class="st2" d="M474.3,756.9L474.3,756.9c-0.5,0.6-2.9,3.6-3.2,3.9c-1.1-0.2-3.9-0.4-5.1-0.4c0.6-0.2,1.6-0.3,1.8-0.4
				c2.1-0.1,3.5-0.7,5.1-2C473.3,757.7,473.7,757.4,474.3,756.9z"/>
			<path class="st2" d="M474.3,779.9c-0.6-0.5-1.1-0.8-1.4-1.1c-1.5-1.3-3-1.9-5.1-2c-0.2,0-1.2-0.2-1.8-0.4c1.1,0,4-0.2,5.1-0.4
				C471.4,776.3,473.8,779.3,474.3,779.9z"/>
			<path class="st2" d="M471.8,762.2L471.8,762.2c-0.8,0.3-1.6,0.8-2.2,1.5c-0.7,0.7-1.2,1.5-1.5,2.4H468c0.3-0.9,0-3.5-1.9-5.6
				C468.2,762.3,470.9,762.6,471.8,762.2L471.8,762.2z"/>
			<path class="st2" d="M471.8,774.6c-0.9-0.4-3.6-0.1-5.7,1.8c1.9-2.1,2.4-4.6,2.1-5.4c0.3,0.8,0.8,1.5,1.4,2.2
				C470.2,773.8,471,774.3,471.8,774.6z"/>
			<path class="st2" d="M474.3,741.7c-2.8,3.2-4.9,6.5-6.2,9.8l0,0c-3-1.8-6.7-3.1-11.2-3.3C461.9,743.9,468.1,741.7,474.3,741.7z
				 M471.3,744.5c0.6-0.8,1-1.3,2.1-2.4c-1.4,0.9-2.1,1.6-2.9,2.2c-2.9,2.1-4.3,3.2-8.6,3.4c-0.9,0-2.4,0.1-3.6,0.1
				c0.7,0.1,1.4,0.2,2.2,0.4C465.4,749.1,467.5,749.8,471.3,744.5z"/>
			<path class="st2" d="M468.1,785.2c1.3,3.3,3.4,6.7,6.2,9.8c-6.2,0-12.5-2.2-17.5-6.5C461.4,788.4,465.1,787,468.1,785.2z
				 M473.4,794.6c-1.1-1.1-1.5-1.6-2.1-2.4c-3.9-5.2-5.9-4.5-10.9-3.7c-0.8,0.1-1.5,0.2-2.2,0.4c1.2,0.1,2.7,0.1,3.6,0.1
				c4.3,0.2,5.7,1.3,8.6,3.4C471.3,793,472.1,793.7,473.4,794.6z"/>
			<path class="st2" d="M468.1,751.6L468.1,751.6c-1.2,3.1-1.9,6.1-2,8.8c-2.7,0.2-5.6,0.6-8.6,1.8c1.6-1,2.6-1.3,3.1-1.5
				c-1.2,0-2.4-0.3-3.3-1.2c-2-2-1.7-5.3,0.5-7.5s5.6-2.4,7.5-0.5c0.9,0.9,1.2,2.1,1.2,3.3C466.8,754.2,467,753.2,468.1,751.6
				L468.1,751.6L468.1,751.6z M466.3,755.2c-0.2-0.3-0.8-0.6-0.9-0.7c-0.1-0.1-0.2-0.3-0.3-0.5c0-0.2-0.2-1-0.5-1.5
				c0.1,0.9,0.3,1.8-0.3,2.2c-0.1,0-0.6,0.3-0.8,0.6C464.5,754.9,465.6,754.9,466.3,755.2z M464.9,759c0.8-0.8,0.9-2,0.2-2.7
				c-0.7-0.7-1.9-0.6-2.7,0.2c-0.8,0.8-0.9,2-0.2,2.7C462.8,759.9,464,759.8,464.9,759z M464.8,751.8c-0.6-0.1-1.6-0.2-2.5,0.8
				c0.3-0.2,0.7-0.2,0.9,0.1c0.2,0.2,0.2,0.6,0.1,0.8C463.7,753.1,463.8,752.3,464.8,751.8z M463.4,750.6c-1.1-0.2-3.2,1.6-3.8,2.3
				c0.6,0.7,0.8,1.2,0.7,1.3c-0.2,0.2-0.7-0.1-1.3-0.7c-0.7,0.7-2.6,2.8-2.3,3.8c1.1-1.8,2.7-3.4,3.4-2.7l1.9,1.9l0.4-0.4l0.4-0.4
				l-1.9-1.9C460,753.4,461.6,751.7,463.4,750.6z M462.9,753.9c-0.2,0.1-0.5,0-0.7-0.2s-0.2-0.6-0.1-0.8c-0.2,0.3-0.6,0.9-0.5,1.7
				C461.9,754.1,462.6,754.1,462.9,753.9z M461.1,760.4c-0.3-0.7-0.4-1.8,0.1-2.9c-0.2,0.2-0.5,0.8-0.6,0.8
				c-0.4,0.6-1.3,0.4-2.2,0.3c0.5,0.3,1.3,0.4,1.5,0.5s0.4,0.2,0.5,0.3C460.5,759.6,460.8,760.2,461.1,760.4z M460.5,755.7
				c-0.8,0-1.4,0.3-1.7,0.5c0.3-0.1,0.6-0.1,0.8,0.1c0.2,0.2,0.2,0.5,0.2,0.7C460,756.7,460,756.1,460.5,755.7z M459.4,757.5
				c-0.3,0.1-0.6,0.1-0.8-0.1c-0.2-0.2-0.3-0.6-0.1-0.9c-1,0.9-0.9,1.9-0.8,2.5C458.2,757.9,459,757.8,459.4,757.5z"/>
			<path class="st2" d="M467.9,766h0.1c-0.6,1.6-0.6,3.3,0,4.8c-1-2.2-4.9-2.5-5.3-2.5l0,0C463.1,768.4,467.1,768.2,467.9,766
				L467.9,766z"/>
			<path class="st2" d="M468.1,785.2c-1.1-1.6-1.3-2.7-1.5-3.2c0,1.2-0.3,2.4-1.2,3.3c-2,2-5.3,1.7-7.5-0.5s-2.4-5.6-0.5-7.5
				c0.9-0.9,2.1-1.2,3.3-1.2c-0.5-0.2-1.5-0.4-3.2-1.5l0,0l0,0c0,0,0,0,0-0.1c3,1.1,5.9,1.7,8.5,1.9
				C466.2,779.1,466.9,782.1,468.1,785.2z M465.4,782.2c0.1-0.1,0.7-0.4,0.9-0.7c-0.7,0.3-1.8,0.4-2.9-0.1c0.2,0.2,0.8,0.5,0.8,0.6
				c0.6,0.4,0.4,1.3,0.3,2.2c0.3-0.5,0.4-1.3,0.5-1.5C465.2,782.5,465.3,782.3,465.4,782.2z M465.1,780.5c0.7-0.7,0.6-1.9-0.2-2.7
				c-0.8-0.8-2-0.9-2.7-0.2s-0.6,1.9,0.2,2.7S464.4,781.2,465.1,780.5z M462.4,784.2c0.9,1,1.9,0.9,2.5,0.8c-1-0.5-1.1-1.3-1.4-1.7
				c0.1,0.3,0.1,0.6-0.1,0.8C463.1,784.4,462.7,784.4,462.4,784.2z M459.6,783.8c0.7,0.7,2.8,2.6,3.8,2.3c-1.8-1.1-3.4-2.7-2.7-3.4
				l1.9-1.9l-0.4-0.4l-0.4-0.4l-1.8,2c-0.7,0.7-2.3-1-3.4-2.7c-0.2,1.1,1.6,3.2,2.3,3.8c0.7-0.6,1.2-0.8,1.3-0.7
				C460.4,782.6,460.1,783.1,459.6,783.8z M462.2,783c0.2-0.2,0.5-0.2,0.7-0.2c-0.4-0.2-1-0.2-1.4-0.7c0,0.8,0.3,1.4,0.5,1.7
				C462,783.6,462,783.2,462.2,783z M461.2,779.2c-0.4-1.1-0.4-2.1-0.1-2.9c-0.3,0.2-0.6,0.8-0.7,0.9c-0.1,0.1-0.3,0.2-0.5,0.3
				c-0.2,0-1,0.2-1.5,0.5c0.9-0.1,1.8-0.3,2.2,0.3C460.7,778.4,461,779,461.2,779.2z M458.9,780.6c0.3,0.2,0.9,0.6,1.7,0.5
				c-0.4-0.4-0.4-1-0.7-1.4c0.1,0.2,0,0.5-0.2,0.7C459.5,780.7,459.1,780.7,458.9,780.6z M458.6,779.4c0.2-0.2,0.6-0.2,0.8-0.1
				c-0.4-0.3-1.2-0.4-1.7-1.4c-0.1,0.6-0.2,1.6,0.8,2.5C458.3,780,458.3,779.6,458.6,779.4z"/>
			<path class="st2" d="M466.7,771.5c-0.2,1.1-0.7,3.7-0.6,4.9c-0.2-0.6-0.1-1.4-0.1-1.6c-0.1-2.1-0.7-3.5-2-5.1
				c-0.3-0.3-0.6-0.7-1.1-1.4C463.4,768.9,466.4,771.3,466.7,771.5z"/>
			<path class="st2" d="M466.1,760.4c0,1.1,0.2,4,0.4,5.1c-0.3,0.2-3.1,2.4-3.7,2.9c0.5-0.6,0.8-1.1,1.1-1.4c1.3-1.5,1.9-3,2-5.1
				C466,761.7,465.9,761,466.1,760.4z"/>
			<path class="st2" d="M464.4,778.3c0.4,0.4,0.5,1.1,0.1,1.5s-1.1,0.4-1.5-0.1c-0.4-0.4-0.5-1.1-0.1-1.5S464,777.8,464.4,778.3z"/>
			<path class="st2" d="M464.5,757c0.4,0.4,0.4,1.1-0.1,1.5c-0.4,0.4-1.1,0.5-1.5,0.1s-0.4-1.1,0.1-1.5
				C463.4,756.6,464.1,756.6,464.5,757z"/>
			<path class="st2" d="M451.9,768.4c0-2.6,1.9-4.8,4.2-4.7c1.4,0,2.2,0.6,3.1,1.5c-0.6-0.8-1.2-2-1.6-3c1.6,2.7,3.6,4.8,5.3,6.2
				l0,0c-1.7,1.4-3.6,3.4-5.3,6.1l0,0c0.4-1,1-2.1,1.6-2.9c-0.8,1-1.7,1.5-3.1,1.5H456C453.7,773.1,451.9,771,451.9,768.4z
				 M460.2,768.4c0-0.9-0.7-1.7-1.4-1.7c-0.8,0-1.4,0.8-1.4,1.7s0.6,1.7,1.4,1.7C459.6,770.1,460.2,769.3,460.2,768.4z M457.4,766.1
				c0.2-0.3,0.7-0.4,1.4-0.4c-0.1-0.1-0.5-0.2-0.8-0.3c-0.2-0.1-0.4-0.2-0.6-0.4c-0.2-0.3-0.3-0.4-0.6-0.5c0.4,0.7,0.3,2.2-0.1,2.7
				C457.1,766.9,457.1,766.5,457.4,766.1z M458.7,771.1c-0.7,0-1.1-0.1-1.4-0.4c-0.3-0.4-0.2-0.8-0.7-1.1c0.3,0.6,0.5,2,0.1,2.7
				c0.3-0.1,0.4-0.3,0.6-0.5c0.1-0.2,0.3-0.3,0.6-0.4C458.2,771.3,458.6,771.2,458.7,771.1z M456.9,768.9c0-0.1,0-0.9,0-1
				c-0.1,0-1.4,0-1.5,0c-0.3,0-0.4-0.2-0.5-0.3c-0.4-0.7-0.3-2.2,0.2-3.3c-0.8,0.2-0.8,2.2-0.9,2.6c-0.2,0.9-0.7,1.4-1.5,1.5
				c0.8,0.1,1.3,0.6,1.5,1.5c0.1,0.5,0.2,2.4,0.9,2.6c-0.4-1.1-0.6-2.6-0.2-3.3c0.1-0.1,0.2-0.3,0.5-0.3
				C455.6,768.9,456.8,768.9,456.9,768.9z M456.5,766c0-0.6-0.5-1.2-0.5-1.6c-0.3,0.2-0.6,0.9-0.7,1.6c0.1-0.2,0.3-0.4,0.6-0.4
				C456.2,765.5,456.4,765.7,456.5,766z M455.9,772.4c0-0.4,0.6-1,0.5-1.6c-0.1,0.3-0.3,0.5-0.6,0.5c-0.3,0-0.5-0.2-0.6-0.4
				C455.3,771.5,455.6,772.2,455.9,772.4z M456.4,766.6c-0.1,0.1-0.3,0.2-0.5,0.2c-0.3,0-0.6-0.2-0.6-0.5c0,0.3,0.1,1.2,0.4,1.5
				C455.9,767.1,456.3,766.9,456.4,766.6z M455.9,770c0.2,0,0.4,0.1,0.5,0.2c-0.1-0.3-0.5-0.6-0.7-1.2c-0.3,0.3-0.4,1.2-0.4,1.5
				C455.3,770.2,455.6,770,455.9,770z"/>
			<path class="st2" d="M458.9,767.5c0.4,0,0.7,0.4,0.7,0.9s-0.3,0.9-0.7,0.9s-0.7-0.4-0.7-0.9C458.2,767.9,458.5,767.5,458.9,767.5
				z"/>
			<path class="st2" d="M457.5,774.5C457.5,774.6,457.5,774.6,457.5,774.5L457.5,774.5c-1.8,3-3.2,6.8-3.4,11.3
				c-4.3-5-6.5-11.2-6.5-17.5C450.9,771.3,454.2,773.3,457.5,774.5z M454.2,782.3c0.8-5,1.5-7.1-3.7-10.9c-0.8-0.6-1.3-1-2.4-2.1
				c0.9,1.4,1.6,2.1,2.2,2.9c2.1,2.9,3.2,4.3,3.4,8.6c0,0.9,0.1,2.4,0.1,3.6C454,783.8,454.1,783.1,454.2,782.3z"/>
			<path class="st2" d="M454.2,750.9c0.2,4.5,1.5,8.3,3.3,11.2c-3.3,1.3-6.6,3.3-9.8,6.2C447.7,762.2,449.8,755.9,454.2,750.9z
				 M450.5,765.4c5.2-3.9,4.5-5.9,3.7-10.9c-0.1-0.8-0.2-1.5-0.4-2.2c-0.1,1.2-0.1,2.7-0.1,3.6c-0.2,4.3-1.3,5.7-3.4,8.6
				c-0.6,0.9-1.3,1.6-2.2,2.9C449.2,766.4,449.7,766,450.5,765.4z"/>
		</g>
	</g>
	<rect x="513.9" y="777.4" class="st2" width="73.4" height="1.5"/>
	<g>
		<path class="st2" d="M518.8,784.1h0.7v3.5c0,0.4-0.1,0.7-0.2,1c-0.1,0.3-0.3,0.5-0.5,0.7s-0.5,0.3-0.7,0.4
			c-0.3,0.1-0.6,0.1-0.9,0.1c-0.7,0-1.2-0.2-1.7-0.5c-0.4-0.3-0.7-0.9-0.7-1.6v-3.5h0.7v3.5c0,1,0.6,1.5,1.7,1.5s1.7-0.5,1.7-1.5
			L518.8,784.1L518.8,784.1z"/>
		<path class="st2" d="M521.2,784.1h2.3c0.6,0,1,0.1,1.4,0.4c0.3,0.2,0.5,0.6,0.5,1c0,0.3-0.1,0.6-0.3,0.8s-0.4,0.3-0.6,0.4
			c0.3,0.1,0.6,0.2,0.8,0.5c0.2,0.2,0.3,0.5,0.3,0.9c0,0.2,0,0.5-0.1,0.6c-0.1,0.2-0.2,0.3-0.3,0.4s-0.3,0.2-0.5,0.3
			s-0.4,0.1-0.5,0.1s-0.3,0-0.5,0h-2.4L521.2,784.1L521.2,784.1z M524.7,785.6c0-0.3-0.1-0.5-0.3-0.7c-0.2-0.1-0.5-0.2-1-0.2h-1.6
			v1.7h1.8c0.3,0,0.6-0.1,0.8-0.2C524.6,786.2,524.7,786,524.7,785.6z M524.9,788.1c0-0.6-0.4-1-1.3-1h-1.7v1.9h1.5
			c0.2,0,0.3,0,0.4,0c0.1,0,0.2,0,0.4-0.1c0.1,0,0.3-0.1,0.4-0.2c0.1-0.1,0.2-0.2,0.2-0.3C524.9,788.5,524.9,788.3,524.9,788.1z"/>
		<path class="st2" d="M526.7,787c0-0.6,0.1-1.2,0.4-1.6c0.3-0.5,0.7-0.8,1.1-1c0.4-0.2,0.9-0.3,1.4-0.3c0.6,0,1.1,0.1,1.6,0.4v0.7
			c-0.4-0.3-0.9-0.4-1.5-0.4s-1.2,0.2-1.7,0.6c-0.5,0.4-0.7,1-0.7,1.7c0,0.5,0.1,0.9,0.4,1.2c0.2,0.3,0.5,0.6,0.9,0.8
			s0.7,0.2,1.1,0.2c0.6,0,1.1-0.1,1.5-0.4v0.7c-0.5,0.2-1,0.4-1.6,0.4c-0.4,0-0.7-0.1-1.1-0.2s-0.7-0.3-0.9-0.5
			c-0.3-0.2-0.5-0.5-0.7-0.9C526.8,787.8,526.7,787.4,526.7,787z"/>
		<path class="st2" d="M537,789.7h-0.7l-2.3-5.6h0.7l1.9,4.8l1.9-4.8h0.7L537,789.7z"/>
		<path class="st2" d="M540.2,789.7h-0.7l2.4-5.6h0.7l2.4,5.6h-0.7l-0.6-1.3h-3L540.2,789.7z M542.2,785l-1.1,2.7h2.5l-1.2-2.7
			c0,0,0-0.1-0.1-0.2C542.2,785,542.2,785,542.2,785z"/>
		<path class="st2" d="M546.9,789.7h-0.7v-5.6h0.6l3.4,4.5v-0.5v-4h0.7v5.6h-0.6l-3.4-4.5v0.5V789.7z"/>
		<path class="st2" d="M552.3,787c0-0.6,0.1-1.2,0.4-1.6c0.3-0.5,0.7-0.8,1.1-1c0.4-0.2,0.9-0.3,1.4-0.3c0.6,0,1.1,0.1,1.6,0.4v0.7
			c-0.4-0.3-0.9-0.4-1.5-0.4s-1.2,0.2-1.7,0.6c-0.5,0.4-0.7,1-0.7,1.7c0,0.5,0.1,0.9,0.4,1.2c0.2,0.3,0.5,0.6,0.9,0.8
			s0.7,0.2,1.1,0.2c0.6,0,1.1-0.1,1.5-0.4v0.7c-0.5,0.2-1,0.4-1.6,0.4c-0.4,0-0.7-0.1-1.1-0.2c-0.3-0.1-0.7-0.3-0.9-0.5
			c-0.3-0.2-0.5-0.5-0.7-0.9C552.4,787.8,552.3,787.4,552.3,787z"/>
		<path class="st2" d="M557.9,788c-0.1-0.3-0.2-0.7-0.2-1.1c0-0.4,0.1-0.7,0.2-1.1c0.1-0.3,0.3-0.7,0.5-0.9c0.2-0.3,0.5-0.5,0.9-0.7
			s0.8-0.2,1.3-0.2s0.9,0.1,1.3,0.2c0.4,0.2,0.7,0.4,0.9,0.7s0.4,0.6,0.5,0.9c0.1,0.3,0.2,0.7,0.2,1.1c0,0.4-0.1,0.7-0.2,1.1
			c-0.1,0.3-0.3,0.7-0.5,0.9c-0.2,0.3-0.5,0.5-0.9,0.7s-0.8,0.2-1.3,0.2s-0.9-0.1-1.3-0.2c-0.4-0.2-0.7-0.4-0.9-0.7
			C558.2,788.6,558.1,788.3,557.9,788z M562.8,787.8c0.1-0.3,0.1-0.5,0.1-0.8s0-0.6-0.1-0.8c-0.1-0.3-0.2-0.5-0.4-0.7
			s-0.4-0.4-0.7-0.5s-0.6-0.2-1-0.2s-0.7,0.1-1,0.2s-0.5,0.3-0.7,0.5s-0.3,0.4-0.4,0.7c-0.1,0.3-0.1,0.5-0.1,0.8s0,0.6,0.1,0.8
			c0.1,0.3,0.2,0.5,0.4,0.7s0.4,0.4,0.7,0.5s0.6,0.2,1,0.2s0.7-0.1,1-0.2c0.3-0.1,0.5-0.3,0.7-0.5S562.7,788,562.8,787.8z"/>
		<path class="st2" d="M569,784.1h0.7v3.5c0,0.4-0.1,0.7-0.2,1c-0.1,0.3-0.3,0.5-0.5,0.7s-0.5,0.3-0.7,0.4c-0.3,0.1-0.6,0.1-0.9,0.1
			c-0.7,0-1.2-0.2-1.7-0.5c-0.4-0.3-0.7-0.9-0.7-1.6v-3.5h0.7v3.5c0,1,0.6,1.5,1.7,1.5s1.7-0.5,1.7-1.5L569,784.1L569,784.1z"/>
		<path class="st2" d="M573.8,789.7h-0.7l-2.3-5.6h0.7l1.9,4.8l1.9-4.8h0.7L573.8,789.7z"/>
		<path class="st2" d="M577.3,784.1h3.8v0.6H578v1.8h2.9v0.6H578v1.9h3.1v0.6h-3.8V784.1L577.3,784.1z"/>
		<path class="st2" d="M583.2,789.7h-0.7v-5.6h2.2c0.4,0,0.7,0,1,0.1s0.6,0.3,0.8,0.5c0.2,0.3,0.3,0.6,0.3,1c0,0.5-0.1,0.9-0.4,1.1
			c-0.3,0.3-0.6,0.4-1.1,0.5l1.9,2.3h-0.8l-1.8-2.2h-1.3L583.2,789.7L583.2,789.7z M583.2,784.8v2.1h1.5c0.4,0,0.7-0.1,1-0.2
			c0.3-0.2,0.4-0.4,0.4-0.8s-0.1-0.7-0.4-0.8s-0.6-0.2-1-0.2L583.2,784.8L583.2,784.8z"/>
	</g>
</g>
<text transform="matrix(1 0 0 1 512.4821 772.8141)" class="st2 st3 st4">GSS</text>
<text transform="matrix(1 0 0 1 20.9201 778.3998)" class="st5 st6">(604)822-3203</text>
<text transform="matrix(1 0 0 1 173.0911 777.0004)" class="st5 st6">info@gss.ubc.ca</text>
<path d="M54.6,729.4c-9.5,0-17.2,7.7-17.2,17.2s7.7,17.2,17.2,17.2s17.2-7.7,17.2-17.2C71.8,737.1,64.1,729.4,54.6,729.4z
	 M64.9,755.1c-0.8,1.4-2.3,2.3-4,2.3c-0.8,0-1.5-0.2-2.2-0.6l-1.5-0.8c-5.1-2.8-9.3-7-12.2-12.2l-0.8-1.5c-0.6-1.1-0.7-2.3-0.4-3.4
	c0.3-1.2,1.1-2.1,2.2-2.7l0.2-0.1c0.5-0.3,1.1-0.4,1.7-0.4c1.3,0,2.5,0.7,3.1,1.8l1.1,2c0.7,1.2,0.3,2.7-0.9,3.4l-1.4,0.8
	c1.7,3.1,4.3,5.8,7.4,7.4l0.8-1.4c0.7-1.1,2.3-1.6,3.4-0.9l2,1.1c0.8,0.5,1.4,1.2,1.7,2.1c0.3,0.9,0.1,1.9-0.3,2.7L64.9,755.1z"/>
<g>
	<path d="M131.4,748.5h4.3l1.2-4.5h-4.3L131.4,748.5z"/>
	<path d="M150,739.6c-0.9-2.1-2.1-3.9-3.7-5.5c-1.6-1.6-3.4-2.8-5.5-3.7s-4.4-1.4-6.7-1.4s-4.6,0.5-6.7,1.4
		c-2.1,0.9-3.9,2.1-5.5,3.7c-1.6,1.6-2.8,3.4-3.7,5.5s-1.4,4.4-1.4,6.7s0.5,4.6,1.4,6.7c0.9,2.1,2.1,3.9,3.7,5.5
		c1.6,1.6,3.4,2.8,5.5,3.7c2.1,0.9,4.4,1.4,6.7,1.4s4.6-0.5,6.7-1.4c2.1-0.9,3.9-2.1,5.5-3.7c1.6-1.6,2.8-3.4,3.7-5.5
		s1.4-4.4,1.4-6.7C151.4,744,150.9,741.7,150,739.6L150,739.6z M144.5,743.8c0,0.1-0.1,0.2-0.2,0.2h-3.4l-1.2,4.5h2.3
		c0.1,0,0.2,0.1,0.2,0.2v3.4c0,0.1-0.1,0.2-0.2,0.2h-3.4l-1.2,4.4c0,0.1-0.1,0.2-0.3,0.2l-3.3-0.9c-0.1,0-0.2-0.1-0.2-0.3l0.9-3.4
		h-4.3l-1.3,4.7c0,0.1-0.1,0.2-0.2,0.2c0,0,0,0-0.1,0l-3.3-0.9c-0.1,0-0.1-0.1-0.1-0.1s0-0.1,0-0.2l1-3.7h-2.4
		c-0.1,0-0.2-0.1-0.2-0.2v-3.4c0-0.1,0.1-0.2,0.2-0.2h3.4l1.2-4.5H126c-0.1,0-0.2-0.1-0.2-0.2v-3.4c0-0.1,0.1-0.2,0.2-0.2h3.4
		l1.2-4.4c0-0.1,0.1-0.2,0.3-0.2l3.3,0.9c0.1,0,0.1,0.1,0.1,0.1s0,0.1,0,0.2l-0.9,3.4h4.3l1.3-4.7c0-0.1,0.1-0.1,0.1-0.1
		s0.1,0,0.2,0l3.3,0.9c0.1,0,0.1,0.1,0.1,0.1s0,0.1,0,0.2l-1,3.7h2.4c0.1,0,0.2,0.1,0.2,0.2L144.5,743.8z"/>
</g>
<text transform="matrix(1 0 0 1 112.6901 777.0002)" class="st5 st6">@ubcgss</text>
<path d="M213.4,728.8c-4.6,0-9,1.8-12.3,5.1c-3.3,3.3-5.1,7.7-5.1,12.3s1.8,9,5.1,12.3c3.3,3.3,7.7,5.1,12.3,5.1
	c4.6,0,9-1.8,12.3-5.1c3.3-3.3,5.1-7.7,5.1-12.3s-1.8-9-5.1-12.3C222.5,730.7,218,728.8,213.4,728.8z M221.1,740.3l-7.6,5.7
	l-7.6-5.7H221.1z M222.1,751.5c0,0.2-0.1,0.4-0.2,0.5c-0.1,0.1-0.3,0.2-0.5,0.1h-16c-0.2,0-0.4,0-0.5-0.2c-0.1-0.1-0.2-0.3-0.2-0.5
	v-9.5v-0.9l2.8,2.1l5.3,4c0.3,0.3,0.8,0.3,1,0l8-6l0.1-0.1c0,0.1,0,0.1,0,0.2L222.1,751.5L222.1,751.5z"/>
</svg>
